<?xml version="1.0" encoding="iso-8859-1"?>
<!-- Generator: Adobe Illustrator 18.1.1, SVG Export Plug-In . SVG Version: 6.00 Build 0)  -->
<svg version="1.1" id="Capa_1" xmlns="http://www.w3.org/2000/svg" xmlns:xlink="http://www.w3.org/1999/xlink" x="0px" y="0px"
	 viewBox="0 0 473.866 473.866" style="enable-background:new 0 0 473.866 473.866;" xml:space="preserve">
<g>
	<g>
		<path style="fill:#010002;" d="M313.376,427.427c20.378,9.535,45.52,9.096,67.223-3.341c4.674-2.682,8.909-5.804,12.754-9.242
			c16.03,8.527,35.985,8.909,52.95-0.821c26.207-15.03,35.327-48.357,20.37-74.441c-13.583-23.687-42.342-33.197-67.142-23.492
			c-16.013-16.794-39.984-24.036-63.427-19.704c-0.228-0.211-0.439-0.447-0.667-0.658c-0.146,0.293-0.309,0.577-0.463,0.87
			c-14.241,27.54-34.79,50.454-59.582,67.15c-23.695,15.956-51.21,26.174-80.587,29.539c1.089,2.512,2.325,4.991,3.723,7.421
			C220.45,438.929,271.693,450.756,313.376,427.427z"/>
		<circle style="fill:#010002;" cx="234.082" cy="161.729" r="27.718"/>
		<circle style="fill:#010002;" cx="182.01" cy="118.647" r="27.718"/>
		<path style="fill:#010002;" d="M334.372,127.767l25.321-80.294c2.699-8.559-2.3-14.314-11.136-12.721
			c-21.419,3.861-59.737,11.258-86.407,19.224c-1.796,0.536-3.544,1.073-5.227,1.618c-1.886,0.602-3.682,1.211-5.397,1.821
			c-4.69-2.341-9.478-4.536-14.42-6.478c-20.354-7.974-41.659-12.014-63.33-12.014c-72.011,0-135.528,43.333-161.799,110.41
			c-34.945,89.187,9.193,190.184,98.388,225.129c20.354,7.974,41.667,12.022,63.33,12.022c6.153,0,12.217-0.431,18.232-1.049
			c31.384-3.243,60.55-14.753,85.017-32.839c18.972-14.022,35.156-31.897,47.251-52.982c1.707-2.967,3.284-6.031,4.82-9.128
			c2.333-4.682,4.536-9.462,6.478-14.412c16.932-43.203,16.021-90.422-2.56-132.943c-0.626-1.439-1.414-2.772-2.073-4.186
			l1.845-5.853L334.372,127.767z M123.2,70.258c16.558-19.565,69.304-2.154,117.816,38.895
			c48.503,41.049,74.401,90.187,57.843,109.76c-16.558,19.565-69.304,2.154-117.816-38.895
			C132.54,138.96,106.642,89.823,123.2,70.258z M236.269,329.624c-8.429,21.516-27.117,32.262-47.633,33.1
			c-4.3,0.179-8.657-0.138-13.038-0.829L193,317.472l-42.472-16.639L131.621,349.1c-23.085-8.234-43.463-19.102-61.672-40.586
			c-10.608-12.51-18.858-25.15-25.109-38.651l41.017-34.286l-29.255-35.002l-25.239,21.094
			c-7.95-67.727,96.974-83.781,106.143-15.558c0.415,3.064,0.992,5.844,1.65,8.502l-35.213,36.123l32.661,31.84l32.864-33.717
			c10.535,4.398,22.971,7.283,36.416,11.209c13.648,3.991,23.516,14.526,28.954,27.198
			C240.601,300.711,241.39,316.553,236.269,329.624z"/>
	</g>
</g>
<g>
</g>
<g>
</g>
<g>
</g>
<g>
</g>
<g>
</g>
<g>
</g>
<g>
</g>
<g>
</g>
<g>
</g>
<g>
</g>
<g>
</g>
<g>
</g>
<g>
</g>
<g>
</g>
<g>
</g>
</svg>
