<?xml version="1.0" encoding="iso-8859-1"?>
<!-- Generator: Adobe Illustrator 18.1.1, SVG Export Plug-In . SVG Version: 6.00 Build 0)  -->
<svg version="1.1" id="Capa_1" xmlns="http://www.w3.org/2000/svg" xmlns:xlink="http://www.w3.org/1999/xlink" x="0px" y="0px"
	 viewBox="0 0 480.984 480.984" style="enable-background:new 0 0 480.984 480.984;" xml:space="preserve">
<g>
	<g>
		<path style="fill:#010002;" d="M102.421,429.132v31.523c0,11.226,9.096,20.321,20.321,20.321s20.321-9.096,20.321-20.321v-19.956
			c9.25,2.024,18.899,3.764,28.889,5.202v14.753c0,11.226,9.096,20.321,20.321,20.321c11.226,0,20.321-9.096,20.321-20.321v-10.738
			c9.202,0.512,18.566,0.805,28.1,0.805c10.388,0,20.598-0.333,30.588-0.935v10.868c0,11.226,9.096,20.321,20.321,20.321
			c11.226,0,20.321-9.096,20.321-20.321v-15.103c9.998-1.496,19.647-3.3,28.889-5.381v20.492c0,11.226,9.096,20.321,20.321,20.321
			c11.226,0,20.321-9.096,20.321-20.321V428.23c21.841-8.153,39.651-18.167,52.039-29.466c12.502-11.388,19.517-24.069,19.517-37.44
			c0-4.715-0.878-9.332-2.544-13.851c-8.754-41.066-59.534-76.791-59.534-76.791c-10.348-5.397-17.728-17.826-22.971-31.449
			c-3.845,0.008-7.901,0.561-12.64,2.032c-0.764,0.236-1.536,0.488-2.3,0.723c-15.135,4.731-30.767,9.925-46.243,13.054
			c-3.633,0.732-7.129,1.244-10.559,1.642c-27.466,3.203-49.007-4.243-71.621-23.28c-20.484-17.241-6.178-42.732,14.241-48.406
			v33.36h41.594v-20.939c10.185,1.74,21.874-0.951,33.319-4.674v31.035h10.982h30.328h0.285v-3.609v-31.71v-8.381
			c0.114-0.016,0.219-0.016,0.333-0.033C350.245,79.156,298.084,0,234.494,0c-67.199,0-121.685,88.39-121.685,197.419
			c-8.657,73.287-18.623,45.943-54.632,89.398s-29.799,74.498-29.799,74.498C28.378,388.448,57.112,412.737,102.421,429.132z
			 M218.351,105.541c0-16.46,13.339-29.799,29.799-29.799h40.976c16.46,0,29.799,13.339,29.799,29.799v13.656
			c0,16.46-13.339,29.799-29.799,29.799H248.15c-16.46,0-29.799-13.339-29.799-29.799
			C218.351,119.197,218.351,105.541,218.351,105.541z"/>
		<circle style="fill:#010002;" cx="250.637" cy="101.819" r="20.484"/>
	</g>
</g>
<g>
</g>
<g>
</g>
<g>
</g>
<g>
</g>
<g>
</g>
<g>
</g>
<g>
</g>
<g>
</g>
<g>
</g>
<g>
</g>
<g>
</g>
<g>
</g>
<g>
</g>
<g>
</g>
<g>
</g>
</svg>
