<?xml version="1.0" encoding="iso-8859-1"?>
<!-- Generator: Adobe Illustrator 18.1.1, SVG Export Plug-In . SVG Version: 6.00 Build 0)  -->
<svg version="1.1" id="Capa_1" xmlns="http://www.w3.org/2000/svg" xmlns:xlink="http://www.w3.org/1999/xlink" x="0px" y="0px"
	 viewBox="0 0 489.647 489.647" style="enable-background:new 0 0 489.647 489.647;" xml:space="preserve">
<g>
	<g>
		<path style="fill:#010002;" d="M447.758,314.779l3.17-4.268l0.081,0.008l0.016-0.146l10.632-14.298l-4.178-3.105l10.486-16.631
			l-8.535-5.381l0.463-1.089l3.747-0.35l-0.65-6.966l11.965-28.271l-5.601-2.374l4.536-13.656l-5.861-1.951l3.723-15.428
			l-7.568-1.829l-1.609-3.926l0.87-10.031l0.919-0.488l-0.748-1.398l1.227-14.192l-9.242-0.797l-0.195-3.203l3.585-2.43
			l-4.105-6.056l-0.894-14.29l-8.454,0.52l-2.113-3.113l4.95-4.365l-12.445-14.127l-2.406-7.885l2.065-2.333l-3.804-3.365
			l-3.316-10.884l-6.235,1.902l-1.666-3.91l2.3-3.268l-5.275-3.707l-2.788-6.535l-4.056,1.723l-3.195-2.243l-3.723-6.665l1.78-3.373
			l-5.202-2.747l-1.837-3.292l-2.138,1.195l-6.592-3.479l2.252-5.471l-12.713-5.235l-5.373-7.047l0.602-2.048l-14.672-4.292
			l-0.87-0.919l0.886-4.17l-23.418-4.975l0.667-6.82l-14.314-1.406l-3.772-2.747l-1.601,2.211l-1.301-0.13v-6.096h-17.119
			l-4.576-2.536l-1.398,2.536h-4.471l-3.3-1.447l-1.057-7.072l-16.558,2.479l-1.284-5.414l-23.053,5.487L240.756,0l-16.249,5.983
			l-2.406-5.162L198.162,11.99l-4.064-6.511l-19.224,11.99l-3.658-4.788l-26.613,20.33l-13.705,3.999l1.414,4.845l-8.055,3.455
			l-8.356-6.21l-7.779,10.461l-4.625-2.91L88.37,70.645l-10.153-4.3l-7.568,17.883l-5.592-1.861l-6.243,18.785l-5.844-1.414
			l-7.958,32.953l-9.397-0.813l-2.365,27.345l-0.171,0.285l0.146,0.089l-0.463,5.349l-1.731,3.17l-7.039,0.439l1.528,25.036
			l-3.219,8.072l3.804,1.512l0.602,9.795l-1.357,6.535l-8.99,2.739l5.015,16.452l-0.415,2.008l1.097,0.228l2.024,6.641l-5.617,2.39
			l4.625,10.86l-0.187,1.585l0.902,0.098l3.942,9.25l-5.243,2.926l5.568,9.957v2.837h1.585l3.568,6.389l0.862,9.218l-2.951,2.252
			l9.112,11.965l1.756,10.088l1.455-0.252l-1.691,1.593l10.396,11.006l2.715,8.917c-4.845,5.145-8.543,11.396-10.372,18.915
			c-3.633,14.948-3.26,26.971-12.274,40.301c-7.877,11.648-18.444,21.484-26.629,32.986c-9.137,12.843,12.022,25.003,21.053,12.307
			c11.616-16.33,26.832-29.588,35.124-48.137c4.755-10.648,4.698-24.296,9.08-34.514l1.057-0.431l4.967,3.617l7.86,14.64
			l1.309-0.699l8.007,4.43l7.267,10.73c-1.886,7.259-2.487,14.64-2.991,22.256c-1.479,22.15-13.526,29.133-30.108,41.236
			c-12.567,9.169-0.415,30.344,12.307,21.053c13.697-9.998,35.619-22.118,39.798-40.22c2.292-9.909,2.048-19.931,3.251-28.775
			l1.528,1.731l2.317-2.04l7.877,2.455l14.778,13.079l3.178-3.593l2.999,0.618l18.728,13.176l3.983-5.657l25.459,13.445l2.65-5.023
			l21.029,8.657l2.455-5.966l23.158,6.771l1.382-4.739l15.298,3.251l1.431-6.714l23.353,2.292l0.602-6.105h20.403v-8.519
			l4.609-0.691l1.016,1.463l2.983-2.065l23.313-3.495l-0.805-5.389l18.655-4.43l-1.723-7.243l25.386-9.348l-1.951-5.3l3.512-1.642
			c14.493,26.873,14.29,66.224,44.171,83.237c13.689,7.795,25.971-13.282,12.307-21.053c-23.687-13.485-20.004-44.536-30.58-66.191
			c-2.414-4.934-5.194-9.616-8.267-14.022l13.233-8.251l-3.3-5.324l14.014-10.705l-5.129-6.714l5.259-13.193
			c20.378,10.738,23.337,44.081,29.393,66.37c4.121,15.16,27.645,8.714,23.516-6.487
			C478.053,366.485,471.177,330.337,447.758,314.779z M77.25,234.648c1.244-2.073,2.634-4.081,3.991-6.096
			c0.602-0.894,1.146-1.821,1.772-2.707c1.203-1.699,2.52-3.333,3.796-4.991c1.423-1.845,2.845-3.682,4.365-5.471
			c1.032-1.219,2.122-2.398,3.195-3.585c0.179-0.203,0.358-0.406,0.545-0.61c2.674-2.926,5.462-5.779,8.381-8.543
			c0.91-0.862,1.788-1.748,2.723-2.593c1.39-1.252,2.861-2.439,4.3-3.65c1.772-1.496,3.544-2.991,5.389-4.422
			c1.788-1.39,3.633-2.731,5.487-4.064c0.699-0.504,1.357-1.032,2.065-1.528c1.772-1.227,3.625-2.382,5.454-3.56
			c0.894-0.577,1.772-1.162,2.674-1.723c2.17-1.341,4.389-2.626,6.625-3.894c-0.902,1.853-1.878,3.658-2.682,5.568
			c-0.325,0.764-0.561,1.569-0.87,2.341c-0.171,0.423-0.309,0.862-0.471,1.292c-0.658,1.699-1.301,3.398-1.878,5.129
			c-0.309,0.919-0.658,1.821-0.943,2.747c-0.675,2.203-1.187,4.471-1.731,6.73c-0.154,0.634-0.341,1.26-0.488,1.902
			c-0.138,0.61-0.333,1.187-0.463,1.796c-0.732,3.52-1.26,7.104-1.666,10.738c-0.041,0.358-0.122,0.699-0.163,1.057
			c-0.016,0.154-0.016,0.309-0.033,0.463c-0.049,0.488-0.033,0.992-0.073,1.479c-0.276,3.219-0.488,6.462-0.496,9.746
			c0,0.122-0.016,0.244-0.016,0.366c0,1.439,0.163,2.829,0.211,4.251c0.033,0.975,0.089,1.943,0.146,2.918
			c0.073,1.244,0.073,2.504,0.187,3.731c0.122,1.333,0.325,2.634,0.496,3.95c0.179,1.39,0.406,2.764,0.634,4.146
			c0.057,0.358,0.106,0.723,0.163,1.081c0.837,4.812,1.87,9.551,3.276,14.152c0,0.008,0,0.008,0,0.016
			c0.081,0.268,0.138,0.536,0.228,0.805c0.788,2.528,1.764,4.967,2.723,7.421c0.268,0.683,0.48,1.39,0.756,2.065
			c0.203,0.496,0.374,1,0.585,1.488c0.073,0.179,0.171,0.341,0.252,0.52c1.325,3.064,2.764,6.072,4.341,8.99
			c0.317,0.585,0.667,1.146,0.992,1.723c0.203,0.358,0.431,0.699,0.642,1.049c0.122,0.211,0.26,0.423,0.39,0.634
			c1.366,2.341,2.723,4.69,4.243,6.926c0.78,1.146,1.674,2.211,2.487,3.325c-1.439-0.699-2.918-1.349-4.333-2.081
			c-2-1.032-3.918-2.162-5.861-3.251c-1.561-0.878-3.17-1.707-4.698-2.626c-0.699-0.423-1.366-0.878-2.057-1.309
			c-0.52-0.325-1.024-0.667-1.544-0.992c-1.878-1.179-3.755-2.357-5.576-3.593c-1.422-0.967-2.78-1.983-4.162-2.983
			c-0.577-0.415-1.138-0.845-1.707-1.268c-3.251-2.414-6.389-4.918-9.421-7.511c-0.78-0.667-1.585-1.317-2.357-2
			c-0.008-0.008-0.008-0.008-0.016-0.016c-0.553-0.496-1.146-0.959-1.691-1.463c-3.975-3.625-7.665-7.462-11.193-11.388
			c-0.512-0.569-1.024-1.138-1.52-1.707c-0.203-0.236-0.423-0.471-0.626-0.707c-3.17-3.674-6.202-7.438-8.958-11.347
			c-0.447-0.634-0.837-1.301-1.268-1.943c-0.675-0.992-1.309-1.991-1.959-2.999C78.973,237.257,78.054,235.981,77.25,234.648z
			 M264.971,302.237c-0.748,0.219-1.52,0.39-2.276,0.585c-0.496,0.13-0.992,0.268-1.496,0.382c-1.479,0.35-2.975,0.658-4.487,0.927
			c-0.618,0.106-1.252,0.195-1.87,0.284c-0.398,0.057-0.788,0.13-1.187,0.179c-1.65,0.219-3.308,0.382-4.991,0.496
			c-1.723,0.114-3.438,0.26-5.194,0.26c-0.439,0-0.87-0.057-1.301-0.065c-0.829-0.016-1.634-0.081-2.455-0.122
			c-1.244-0.065-2.504-0.073-3.731-0.187c-1.317-0.13-2.593-0.366-3.885-0.561c-0.512-0.073-1.016-0.146-1.52-0.236
			c-0.829-0.138-1.683-0.211-2.504-0.382c-0.187-0.041-0.374-0.098-0.561-0.138c-1.512-0.325-2.983-0.74-4.463-1.154
			c-0.366-0.106-0.748-0.179-1.114-0.284c-0.431-0.122-0.878-0.203-1.301-0.341c-1.105-0.341-2.154-0.797-3.235-1.187
			c-1.049-0.382-2.122-0.732-3.146-1.154c-0.545-0.228-1.081-0.471-1.626-0.707c-0.561-0.244-1.097-0.536-1.65-0.797
			c-1.122-0.528-2.26-1.04-3.349-1.618c-0.406-0.211-0.813-0.423-1.219-0.65c-0.033-0.024-0.073-0.041-0.106-0.065
			c-1.073-0.593-2.105-1.268-3.146-1.91c-1.301-0.805-2.585-1.626-3.829-2.504c-0.35-0.252-0.683-0.52-1.032-0.772
			c-0.276-0.203-0.545-0.406-0.813-0.61c-1.073-0.805-2.162-1.585-3.186-2.439c-0.569-0.48-1.097-1.008-1.65-1.504
			c-0.821-0.723-1.642-1.447-2.43-2.203c-0.862-0.829-1.683-1.691-2.504-2.552c-0.098-0.106-0.195-0.219-0.293-0.325
			c-0.504-0.545-1.008-1.089-1.504-1.65c-1.195-1.357-2.341-2.756-3.438-4.194c-0.26-0.341-0.512-0.675-0.764-1.016
			c-0.602-0.813-1.244-1.585-1.805-2.414c-0.195-0.293-0.366-0.593-0.561-0.886c-1.016-1.544-1.975-3.129-2.886-4.747
			c-0.211-0.382-0.447-0.74-0.65-1.13c-0.439-0.821-0.805-1.683-1.219-2.52c-0.016-0.024-0.024-0.057-0.041-0.081
			c-0.593-1.203-1.211-2.382-1.74-3.609c-0.138-0.317-0.252-0.65-0.382-0.975c-0.699-1.691-1.317-3.422-1.894-5.178
			c-0.154-0.463-0.333-0.91-0.48-1.374c-0.016-0.057-0.024-0.114-0.041-0.171v-0.008c-0.854-2.788-1.504-5.657-2.032-8.568
			c-0.041-0.228-0.065-0.455-0.106-0.683c-0.098-0.577-0.179-1.154-0.268-1.731c-0.211-1.414-0.447-2.829-0.577-4.268
			c-0.073-0.805-0.073-1.626-0.122-2.439c-0.065-1.122-0.154-2.243-0.171-3.373c-0.008-0.439-0.065-0.87-0.065-1.309
			c0-0.813,0.098-1.593,0.122-2.398c0.041-1.414,0.098-2.821,0.211-4.211c0.057-0.658,0.106-1.309,0.171-1.959
			c0.236-2.073,0.545-4.121,0.943-6.145c0.057-0.293,0.089-0.585,0.146-0.87c0.171-0.821,0.423-1.609,0.626-2.414
			c0.203-0.845,0.423-1.691,0.65-2.528c0.341-1.236,0.699-2.463,1.097-3.674c0.471-1.414,0.984-2.812,1.536-4.194
			c0.203-0.504,0.358-1.032,0.569-1.536c0.13-0.317,0.309-0.61,0.447-0.919c0.163-0.374,0.358-0.732,0.528-1.097
			c0.748-1.626,1.488-3.251,2.341-4.812c0.008-0.016,0.016-0.024,0.024-0.041c0.626-1.138,1.341-2.227,2.024-3.333
			c0.154-0.252,0.309-0.512,0.463-0.764c0.057-0.089,0.106-0.179,0.163-0.268c1-1.569,2.073-3.089,3.186-4.585
			c0.341-0.463,0.683-0.927,1.032-1.382c0.602-0.772,1.187-1.553,1.813-2.292c1.414-1.674,2.869-3.308,4.414-4.861
			c0.333-0.333,0.699-0.618,1.032-0.943c2.113-2.04,4.357-3.926,6.69-5.714c0.285-0.219,0.569-0.431,0.854-0.642
			c0.691-0.512,1.366-1.057,2.073-1.553c0.415-0.285,0.829-0.577,1.252-0.862c0.585-0.39,1.203-0.723,1.796-1.089
			c1-0.626,1.992-1.252,3.016-1.829c1.439-0.813,2.934-1.544,4.43-2.26c0.236-0.114,0.471-0.228,0.707-0.341
			c0.618-0.293,1.219-0.618,1.845-0.886c0.106-0.049,0.203-0.106,0.309-0.146c1.032-0.447,2.105-0.805,3.162-1.211
			c0.203-0.073,0.398-0.146,0.602-0.219c0.252-0.098,0.512-0.187,0.764-0.276c1.406-0.504,2.804-0.992,4.243-1.414
			c1.244-0.366,2.504-0.675,3.772-0.975c0.504-0.122,0.984-0.276,1.496-0.382c1.276-0.276,2.577-0.463,3.877-0.675
			c0.325-0.057,0.658-0.106,0.992-0.154c0.398-0.057,0.788-0.13,1.187-0.179c3.008-0.398,6.056-0.658,9.153-0.707
			c0.341-0.008,0.683-0.049,1.024-0.049c1.236,0,2.439,0.13,3.666,0.187c0.447,0.024,0.894,0.041,1.341,0.065
			c0.829,0.057,1.666,0.049,2.487,0.13c2.682,0.26,5.324,0.642,7.917,1.179c0.187,0.041,0.374,0.098,0.561,0.138
			c0.748,0.163,1.479,0.39,2.219,0.569c1.122,0.276,2.252,0.545,3.357,0.87c0.431,0.122,0.878,0.203,1.301,0.341
			c2.178,0.683,4.3,1.479,6.389,2.341c0.545,0.228,1.081,0.471,1.626,0.707c1.699,0.748,3.365,1.544,4.999,2.414
			c0.146,0.081,0.309,0.138,0.463,0.219c0.293,0.154,0.569,0.325,0.862,0.488c2.414,1.341,4.731,2.829,6.974,4.414
			c0.35,0.252,0.683,0.52,1.032,0.772c0.114,0.081,0.228,0.171,0.341,0.26c1.829,1.357,3.601,2.78,5.3,4.284
			c1.154,1.016,2.325,2.016,3.414,3.105c0.528,0.528,1,1.114,1.512,1.658c0.61,0.642,1.203,1.309,1.796,1.975
			c0.658,0.748,1.349,1.471,1.983,2.252c0.512,0.626,0.959,1.301,1.455,1.943c0.87,1.138,1.764,2.252,2.569,3.438
			c1.236,1.821,2.365,3.707,3.447,5.633c0.211,0.382,0.447,0.74,0.65,1.13c0.406,0.756,0.74,1.553,1.122,2.325
			c0.106,0.211,0.211,0.431,0.309,0.642c-0.057-0.041-0.122-0.073-0.187-0.114c-0.008-0.008-0.024-0.016-0.033-0.016
			c-0.992-0.65-2.008-1.276-3.048-1.853c-0.081-0.041-0.154-0.089-0.236-0.13c-0.374-0.203-0.764-0.358-1.138-0.553
			c-2.26-1.138-4.617-2.122-7.08-2.869c-1.585-0.48-3.219-0.854-4.869-1.154c-2.048-0.374-4.154-0.593-6.292-0.675
			c-0.577-0.024-1.146-0.089-1.74-0.089c-0.463,0-0.902,0.057-1.357,0.065c-2.682,0.081-5.324,0.366-7.868,0.902
			c-2.78,0.585-5.471,1.422-8.039,2.504c-0.488,0.203-0.951,0.463-1.431,0.683c-2.951,1.374-5.714,3.048-8.267,4.999
			c-0.439,0.333-0.894,0.642-1.325,0.992c-1.715,1.414-3.292,2.991-4.771,4.65c-0.431,0.48-0.894,0.943-1.301,1.447
			c-1.715,2.089-3.235,4.341-4.552,6.722c-0.285,0.52-0.536,1.065-0.805,1.601c-1.04,2.081-1.959,4.235-2.674,6.487
			c-0.114,0.35-0.195,0.715-0.293,1.073l-1.382,6.763c-0.008,0.081-0.024,0.163-0.041,0.252c-0.033,0.293-0.098,0.577-0.122,0.87
			c0,0.016,0,0.041,0,0.057c-0.008,0.065,0,0.138-0.008,0.203c0,0.008,0,0.024,0,0.033c0,0.033,0,0.065-0.008,0.089
			c0,0.008,0,0.016,0,0.016c0,0.024,0,0.057-0.008,0.089v0.008c0,0.016,0,0.033,0,0.049s0,0.024,0,0.041c0,0.008,0,0.008,0,0.016
			c0,0.008,0,0.016,0,0.024c0,0,0,0.008,0,0.016c0,0.008,0,0.016,0,0.024v0.008c0,0.008,0,0.016,0,0.024l0,0
			c0,0.008,0,0.016,0,0.024l0,0c0,0.008,0,0.016,0,0.024c0,0.008,0,0.008,0,0.016v0.008v0.008c0,0.008,0,0.008,0,0.016
			c0,0,0,0,0,0.008c0,0,0,0.008,0,0.016c0,0,0,0,0,0.008c0,0,0,0.008,0,0.016v0.008c0,0,0,0,0,0.008c0,0,0,0.016,0,0.024v0.008l0,0
			c0,0.008,0,0.016,0,0.016c0,0.016,0,0.033,0,0.041c0,0.016,0,0.033,0,0.049c0,0.008,0,0.008,0,0.016c0,0.008,0,0.024,0,0.033
			c0,0.024,0,0.057,0,0.081c0,0.008,0,0.016,0,0.033c0,0.016,0,0.041,0,0.057c0,0.033,0,0.065-0.008,0.098
			c0,0.033,0,0.073-0.008,0.106c-0.008,0.098-0.008,0.195-0.016,0.285c0,0.024,0,0.057,0,0.081c-0.049,0.878-0.13,1.756-0.13,2.65
			c0,5.023,0.87,9.836,2.406,14.339c0.154,0.447,0.317,0.886,0.488,1.333c0.919,2.43,2.04,4.763,3.349,6.966
			c0.78,1.317,1.634,2.593,2.544,3.82c1.252,1.691,2.593,3.316,4.072,4.804c1.105,1.114,2.268,2.178,3.487,3.17
			c0.707,0.577,1.447,1.105,2.187,1.634c2.926,2.105,6.105,3.869,9.494,5.219c1.301,0.52,2.634,0.975,3.991,1.374
			c1.349,0.39,2.731,0.732,4.129,0.992c2.674,0.504,5.43,0.797,8.25,0.805c0.016,0,0.033,0,0.057,0c0.35,0,0.683-0.041,1.032-0.049
			c0.618-0.016,1.236-0.057,1.845-0.089c0.203-0.016,0.406-0.016,0.61-0.033c0.431-0.033,0.87-0.049,1.301-0.089
			c0.268-0.033,0.528-0.089,0.788-0.122c1.284-0.163,2.56-0.358,3.812-0.626c1.821-0.39,3.585-0.919,5.316-1.528
			c0.488-0.171,0.967-0.341,1.439-0.528c0.715-0.276,1.414-0.569,2.113-0.886c-0.382,0.536-0.788,1.049-1.179,1.577
			c-0.081,0.114-0.163,0.219-0.252,0.333c-1.008,1.341-2.032,2.658-3.129,3.926c-0.488,0.561-1,1.097-1.496,1.65
			c-0.797,0.878-1.553,1.796-2.39,2.634c-0.057,0.057-0.13,0.114-0.187,0.171c-0.78,0.78-1.634,1.479-2.447,2.227
			c-0.829,0.756-1.626,1.536-2.479,2.252c-0.845,0.707-1.74,1.341-2.617,2.008l-0.008,0.008c-0.959,0.74-1.918,1.488-2.91,2.178
			c-0.171,0.114-0.317,0.252-0.488,0.366c-0.829,0.561-1.707,1.057-2.56,1.585c-0.658,0.406-1.317,0.813-1.983,1.203
			c-1.244,0.723-2.495,1.422-3.78,2.081c-0.788,0.406-1.593,0.78-2.39,1.154c-0.723,0.341-1.422,0.723-2.154,1.04
			c-1.146,0.496-2.325,0.894-3.495,1.333c-0.089,0.033-0.179,0.065-0.268,0.098c-1.073,0.398-2.138,0.837-3.235,1.187
			c-0.471,0.146-0.943,0.276-1.414,0.415C265.215,302.18,265.093,302.204,264.971,302.237z M409.692,234.648
			c-0.715,1.195-1.544,2.341-2.3,3.512c-0.927,1.447-1.845,2.902-2.829,4.316c-0.902,1.309-1.861,2.577-2.812,3.861
			c-0.553,0.748-1.138,1.479-1.707,2.219c-0.284,0.366-0.553,0.732-0.845,1.097c-2.56,3.251-5.251,6.43-8.112,9.502
			c-1.284,1.382-2.609,2.739-3.95,4.081c-1.723,1.723-3.438,3.455-5.251,5.113c-1.674,1.536-3.447,2.991-5.194,4.471
			c-1.366,1.154-2.674,2.349-4.081,3.463c-0.853,0.675-1.772,1.292-2.634,1.951c-0.203,0.154-0.415,0.309-0.626,0.463
			c-0.886,0.675-1.788,1.333-2.691,1.991c-0.219,0.154-0.423,0.317-0.642,0.48c-3.032,2.187-6.153,4.284-9.364,6.3
			c-0.219,0.138-0.431,0.284-0.65,0.415c-0.602,0.374-1.179,0.78-1.788,1.154c-1.894,1.154-3.853,2.227-5.804,3.325
			c-0.179,0.098-0.358,0.203-0.536,0.301c-0.471,0.26-0.943,0.528-1.414,0.788c-2.715,1.479-5.487,2.902-8.299,4.268
			c1.585-2.162,3.097-4.373,4.536-6.641c0.244-0.382,0.471-0.78,0.707-1.162c0.504-0.813,1.008-1.618,1.488-2.447
			c0.35-0.593,0.74-1.162,1.073-1.764c0.171-0.301,0.366-0.577,0.536-0.878c0.821-1.496,1.512-3.073,2.268-4.609
			c0.634-1.276,1.276-2.552,1.861-3.853c0.309-0.691,0.691-1.341,0.984-2.04c0.106-0.252,0.187-0.512,0.293-0.764
			c0.211-0.512,0.374-1.057,0.577-1.577c0.845-2.113,1.634-4.251,2.357-6.422c0.163-0.496,0.374-0.967,0.536-1.463
			c0.219-0.699,0.406-1.414,0.618-2.122c0.545-1.829,0.975-3.699,1.431-5.56c0.024-0.114,0.057-0.219,0.081-0.333
			c0.276-1.154,0.642-2.284,0.886-3.455c0.016-0.081,0.049-0.163,0.065-0.244c0.732-3.52,1.26-7.113,1.666-10.738
			c0.049-0.415,0.138-0.813,0.179-1.227c0.057-0.585,0.041-1.187,0.089-1.772c0.276-3.178,0.471-6.381,0.488-9.624
			c0-0.163,0.024-0.325,0.024-0.488c0-2.422-0.219-4.788-0.366-7.169c-0.008-0.154-0.016-0.309-0.024-0.463
			c-0.073-1.081-0.065-2.187-0.163-3.268c-0.138-1.471-0.366-2.902-0.553-4.357c-0.211-1.618-0.463-3.227-0.74-4.82
			c-0.049-0.276-0.081-0.561-0.13-0.845c-0.496-2.731-1.114-5.406-1.796-8.064c-0.447-1.748-0.829-3.528-1.349-5.243v-0.016
			c-0.52-1.715-1.179-3.357-1.78-5.04c-0.626-1.756-1.219-3.528-1.926-5.251c-0.203-0.496-0.374-1-0.585-1.488
			c-0.089-0.219-0.211-0.423-0.309-0.634c-0.642-1.471-1.382-2.878-2.081-4.316c-0.065-0.122-0.122-0.252-0.179-0.374
			c0.098,0.057,0.195,0.106,0.293,0.163c2.04,1.162,4.072,2.333,6.056,3.552c0.577,0.358,1.13,0.732,1.699,1.097
			c0.496,0.309,0.984,0.634,1.471,0.951c2.65,1.707,5.235,3.463,7.763,5.292c0.195,0.138,0.374,0.285,0.569,0.423
			c0.732,0.536,1.463,1.073,2.187,1.618c0.008,0,0.008,0.008,0.016,0.008c3.048,2.292,5.991,4.666,8.844,7.113
			c2.471,2.13,4.861,4.308,7.178,6.552c1.772,1.707,3.544,3.414,5.219,5.194c1.626,1.723,3.162,3.495,4.698,5.267
			c1.309,1.52,2.585,3.056,3.82,4.617c0.138,0.179,0.276,0.358,0.415,0.536c2.3,2.918,4.479,5.909,6.535,8.966
			c0.829,1.227,1.642,2.463,2.43,3.715C408.635,233.062,409.204,233.835,409.692,234.648z"/>
	</g>
</g>
<g>
</g>
<g>
</g>
<g>
</g>
<g>
</g>
<g>
</g>
<g>
</g>
<g>
</g>
<g>
</g>
<g>
</g>
<g>
</g>
<g>
</g>
<g>
</g>
<g>
</g>
<g>
</g>
<g>
</g>
</svg>
