<?xml version="1.0" encoding="iso-8859-1"?>
<!-- Generator: Adobe Illustrator 18.1.1, SVG Export Plug-In . SVG Version: 6.00 Build 0)  -->
<svg version="1.1" id="Capa_1" xmlns="http://www.w3.org/2000/svg" xmlns:xlink="http://www.w3.org/1999/xlink" x="0px" y="0px"
	 viewBox="0 0 496.349 496.349" style="enable-background:new 0 0 496.349 496.349;" xml:space="preserve">
<g>
	<g>
		<path style="fill:#010002;" d="M468.102,315.596c-3.113,0-6.308-0.073-9.551-0.219l-19.265-51.592l-49.251,39.277
			c-23.573-7.771-40.911-18.525-40.911-30.401c0-7.397,6.73-14.363,17.501-20.443l33.961,31.197l29.206-50.511
			c13.063-2.04,26.247-3.186,38.31-3.186c9.876,0,19.354,0.78,28.247,2.17c-36.262-46.317-92.357-78.351-156.833-85.122
			C325.51,36.607,210.621,53.685,124.279,50.507c-46.17-1.699-46.008,69.873,0,71.564c32.783,1.211,136.479-16.842,143.973,27.718
			c-57.111,10.941-106.192,41.943-138.608,84.683c-19.858-19.297-56.347-53.096-83.464-68.597
			c-10.9-6.218-21.573-2.65-29.596,10.071c-19.086,30.206-23.898,114.288-2.682,158.881c6.031,12.697,16.412,19.127,30.84,19.127
			c30.287,0,72.1-29.36,95.803-48.17c24.63,27.564,56.624,49.243,93.308,62.216c-34.01,12.542-81.513,6.649-111.963,3.357
			c-45.853-4.967-45.374,66.654,0,71.564c73.279,7.934,164.815,3.699,204.954-61.623c50.893-2.666,97.136-21.077,133.455-49.958
			l4.471,0.699l-1.236-3.308c5.178-4.276,10.161-8.746,14.892-13.437C475.035,315.482,471.597,315.596,468.102,315.596z
			 M431.905,290.47l7.917,21.199l-28.832-4.528L431.905,290.47z M322.844,231.327c0,20.801-16.924,37.725-37.725,37.725
			c-20.801,0-37.717-16.924-37.717-37.725s16.916-37.725,37.717-37.725C305.92,193.602,322.844,210.526,322.844,231.327z
			 M386.393,248.307l18.013-3.975l-7.747,13.396L386.393,248.307z"/>
	</g>
</g>
<g>
</g>
<g>
</g>
<g>
</g>
<g>
</g>
<g>
</g>
<g>
</g>
<g>
</g>
<g>
</g>
<g>
</g>
<g>
</g>
<g>
</g>
<g>
</g>
<g>
</g>
<g>
</g>
<g>
</g>
</svg>
