<?xml version="1.0" encoding="iso-8859-1"?>
<!-- Generator: Adobe Illustrator 18.1.1, SVG Export Plug-In . SVG Version: 6.00 Build 0)  -->
<svg version="1.1" id="Capa_1" xmlns="http://www.w3.org/2000/svg" xmlns:xlink="http://www.w3.org/1999/xlink" x="0px" y="0px"
	 viewBox="0 0 473.741 473.741" style="enable-background:new 0 0 473.741 473.741;" xml:space="preserve">
<g>
	<g>
		<path style="fill:#010002;" d="M393.927,415.639c133.658,2.731,67.223-183.462,30.401-231.217S487.966,35.441,320.721,58.681
			S140.966,187.429,166.002,301.563C185.583,390.823,0,418.476,0,418.476S260.269,412.916,393.927,415.639z M378.401,116.695
			c15.144,2.658,25.264,17.094,22.606,32.238l-54.835-9.632C348.83,124.157,363.258,114.037,378.401,116.695z M291.678,116.816
			c15.005-3.341,29.881,6.113,33.23,21.118l-54.348,12.103C267.219,135.041,276.672,120.165,291.678,116.816z M294.23,186.259
			c0,0,7.69-1.016,18.704-2.13v29.222h29.807v-31.62c4.105-0.219,8.21-0.39,12.193-0.48v42.935h25.735v-41.716
			c4.52,0.797,7.795,2.016,9.218,3.788c75.449,94.096,50.105,145.436,1.626,163.132v-30.368h-28.182v36.701
			c-6.779,0.723-13.68,0.984-20.59,0.732v-37.432h-40.375v30.157c-2.772-0.943-5.495-1.951-8.129-3.064
			C217.277,313.601,294.23,186.259,294.23,186.259z"/>
	</g>
</g>
<g>
</g>
<g>
</g>
<g>
</g>
<g>
</g>
<g>
</g>
<g>
</g>
<g>
</g>
<g>
</g>
<g>
</g>
<g>
</g>
<g>
</g>
<g>
</g>
<g>
</g>
<g>
</g>
<g>
</g>
</svg>
