<?xml version="1.0" encoding="iso-8859-1"?>
<!-- Generator: Adobe Illustrator 18.1.1, SVG Export Plug-In . SVG Version: 6.00 Build 0)  -->
<svg version="1.1" id="Capa_1" xmlns="http://www.w3.org/2000/svg" xmlns:xlink="http://www.w3.org/1999/xlink" x="0px" y="0px"
	 viewBox="0 0 479.114 479.114" style="enable-background:new 0 0 479.114 479.114;" xml:space="preserve">
<g>
	<g>
		<path style="fill:#010002;" d="M360.419,3.987c-45.309-5.219-90,40.318-115.393,109.947
			C215.454,39.915,163.805-7.572,114.31,0.996C50.736,12.01,14.849,111.276,34.146,222.719c3.633,20.996,8.974,40.919,15.664,59.371
			c-0.374,0.951-0.797,1.845-1.073,2.902c-11.437,44.032-5.828,89-5.381,133.861c0.301,29.417,45.935,29.442,45.642,0
			c-0.219-22.012-2.073-44.358-2.122-66.549c6.511,8.665,13.388,16.42,20.533,23.158c0.089,0.089,0.179,0.171,0.268,0.26
			c0.667,0.626,1.333,1.227,2,1.829c17.119,16.623,38.554,30.035,62.801,39.212c0.691,5.21,1.138,10.348,0.39,15.217
			c-0.528,0.406-1.731,1.203-4.178,1.479c-4.194,0.488-12.315,0.195-14.306-0.106c-12.29-1.853-24.483,2.894-28.068,15.94
			c-2.999,10.9,3.617,26.215,15.94,28.068c21.191,3.195,44.317,3.357,61.639-11.234c12.9-10.868,14.298-24.15,13.721-38.099
			c9.616,1.317,19.403,2.227,29.482,2.227c1.935,0,3.82-0.122,5.739-0.171c0,0.715-0.049,1.422-0.024,2.146
			c0.415,11.795,5.422,21.931,13.583,30.255c16.712,17.054,42.626,15.916,64.484,15.696c29.417-0.293,29.442-45.935,0-45.642
			c-8.291,0.081-25.069,3.381-32.214-2.325c-0.187-0.154-0.236,0.366-0.244,0.91c-0.13-2.219,0.041-4.487,0.187-6.674
			c0.008-0.163,0.016-0.325,0.033-0.488c15.696-3.918,30.515-9.535,44.122-16.607c15.461-5.438,30.344-16.412,43.854-31.726
			c6.072-6.105,11.413-12.697,16.282-19.557c0.471,20.923,0.919,41.846,1,62.777c0.106,29.425,45.748,29.434,45.642,0
			c-0.171-46.414-2.122-92.788-2.284-139.202c-0.024-7.283-2.853-12.754-7.08-16.436c3.26-13.778,5.82-28.157,7.527-43.025
			C460.669,107.83,421.578,11.034,360.419,3.987z M106.36,245.609c-21.923,0-39.7-17.143-39.7-38.294s17.777-38.294,39.7-38.294
			c9.193,0,17.541,3.138,24.272,8.194c-13.932,3.471-24.272,15.574-24.272,30.1s10.34,26.629,24.272,30.1
			C123.902,242.471,115.546,245.609,106.36,245.609z M328.205,325.358c-13.705-31.214-46.715-21.411-74.572-23.638
			c-32.563-2.601-61.387-5.657-86.488,19.565c-12.469,12.526-31.831-6.836-19.362-19.362c37.44-37.619,77.392-26.158,125.578-26.499
			c35.05-0.252,62.826,0.455,78.481,36.115C358.874,327.545,335.285,341.494,328.205,325.358z M385.048,251.388
			c-12.583,0-24.004-4.934-32.571-12.941c0.228,0.008,0.439,0.065,0.667,0.065c17.867,0,32.344-13.965,32.344-31.197
			s-14.477-31.197-32.344-31.197c-3.178,0-6.186,0.577-9.088,1.406c8.437-13.981,23.622-23.345,41.001-23.345
			c26.54,0,48.056,21.76,48.056,48.609C433.105,229.628,411.588,251.388,385.048,251.388z"/>
	</g>
</g>
<g>
</g>
<g>
</g>
<g>
</g>
<g>
</g>
<g>
</g>
<g>
</g>
<g>
</g>
<g>
</g>
<g>
</g>
<g>
</g>
<g>
</g>
<g>
</g>
<g>
</g>
<g>
</g>
<g>
</g>
</svg>
