<?xml version="1.0" encoding="iso-8859-1"?>
<!-- Generator: Adobe Illustrator 16.0.0, SVG Export Plug-In . SVG Version: 6.00 Build 0)  -->
<!DOCTYPE svg PUBLIC "-//W3C//DTD SVG 1.1//EN" "http://www.w3.org/Graphics/SVG/1.1/DTD/svg11.dtd">
<svg version="1.1" id="Capa_1" xmlns="http://www.w3.org/2000/svg" xmlns:xlink="http://www.w3.org/1999/xlink" x="0px" y="0px"
	 width="193.164px" height="193.164px" viewBox="0 0 193.164 193.164" style="enable-background:new 0 0 193.164 193.164;"
	 xml:space="preserve">
<g>
	<g>
		<path d="M164.16,57.155c3.511,0,6.354,2.846,6.354,6.357c0,3.508-2.843,6.354-6.354,6.354c-3.512,0-6.354-2.846-6.354-6.354
			C157.806,60.001,160.648,57.155,164.16,57.155z"/>
		<path d="M164.78,34.579c-18.169-16.107-50.158-11.367-68.198,4.817c-18.037-16.184-50.02-20.924-68.189-4.823
			C12.661,34.906,0,47.706,0,63.512c0,12.424,7.838,22.934,18.812,27.065c16.373,45.563,77.771,77.972,77.771,77.972
			s61.401-32.408,77.773-77.972c10.971-4.132,18.809-14.641,18.809-27.065C193.164,47.712,180.509,34.918,164.78,34.579z
			 M28.999,85.553c-12.153,0-22.044-9.889-22.044-22.041c0-12.155,9.886-22.038,22.044-22.038c12.152,0,22.038,9.883,22.038,22.038
			C51.037,75.664,41.151,85.553,28.999,85.553z M96.582,78.049c12.152,0,22.047,15.935,22.047,28.087
			c0,12.153-9.895,15.983-22.047,15.983s-22.038-3.83-22.038-15.983C74.544,93.979,84.43,78.049,96.582,78.049z M96.582,139.427
			c-18.359,0-33.289-0.532-33.289-2.199s14.924-3.854,33.289-3.854c18.365,0,33.289,2.181,33.289,3.854
			C129.871,138.895,114.941,139.427,96.582,139.427z M164.166,85.553c-12.152,0-22.035-9.889-22.035-22.041
			c0-12.155,9.883-22.038,22.035-22.038s22.047,9.883,22.047,22.038C186.213,75.664,176.318,85.553,164.166,85.553z"/>
		<circle cx="87.202" cy="108.297" r="6.357"/>
		<path d="M105.963,101.94c3.511,0,6.354,2.849,6.354,6.36c0,3.511-2.843,6.354-6.354,6.354c-3.506,0-6.354-2.843-6.354-6.354
			C99.608,104.789,102.457,101.94,105.963,101.94z"/>
		<circle cx="28.999" cy="63.51" r="6.355"/>
	</g>
</g>
<g>
</g>
<g>
</g>
<g>
</g>
<g>
</g>
<g>
</g>
<g>
</g>
<g>
</g>
<g>
</g>
<g>
</g>
<g>
</g>
<g>
</g>
<g>
</g>
<g>
</g>
<g>
</g>
<g>
</g>
</svg>
