<?xml version="1.0" encoding="iso-8859-1"?>
<!-- Generator: Adobe Illustrator 18.1.1, SVG Export Plug-In . SVG Version: 6.00 Build 0)  -->
<svg version="1.1" id="Capa_1" xmlns="http://www.w3.org/2000/svg" xmlns:xlink="http://www.w3.org/1999/xlink" x="0px" y="0px"
	 viewBox="0 0 493.15 493.15" style="enable-background:new 0 0 493.15 493.15;" xml:space="preserve">
<g>
	<g>
		<path style="fill:#010002;" d="M476.227,257.204c-0.707-28.369-24.597-50.665-52.649-50.088l-52.389,1.301l20.086-18.265
			c20.996-19.094,22.532-51.592,3.447-72.588c-19.094-21.004-51.592-22.532-72.588-3.447l-26.857,24.426l-1.203-73.409
			c-0.602-36.741-24.182-65.687-52.462-65.126c-28.377,0.78-50.885,31.206-50.275,67.947l0.959,58.412l-31.092-41.732
			c-16.956-22.744-49.145-27.45-71.905-10.502c-22.752,16.956-27.458,49.145-10.502,71.905l29.848,40.058l-12.916-1.78
			c-28.052-3.853-54.031,15.794-57.9,43.902c-2.943,21.378,7.747,41.464,25.386,51.576c-13.526,3.902-26.832,8.722-39.911,14.42
			c-14.388,6.267-1.959,27.271,12.307,21.053c22.996-10.031,47.3-17.029,72.182-20.061l-48.715,37.977
			c-22.378,17.452-26.377,49.739-8.933,72.117c10.128,12.989,25.264,19.793,40.562,19.793c11.047,0,22.175-3.544,31.555-10.86
			l42.472-33.116c-2.861,12.193-5.625,24.402-8.754,36.538c-4.17,16.192-8.876,51.308-31.165,46.024
			c-15.29-3.625-21.785,19.891-6.487,23.516c22.776,5.397,39.635,3.674,47.577-20.72c3.633-11.161,6.852-22.386,9.949-33.628
			c6.462,16.826,21.573,29.759,40.692,32.498c2.471,0.358,4.926,0.528,7.356,0.528c20.305,0,38.359-12.152,46.56-30.279
			c4.089,10.86,8.372,21.598,13.079,31.84c12.315,26.792,40.18,25.979,65.622,25.613c15.713-0.228,15.737-24.613,0-24.386
			c-10.527,0.154-20.964,0.813-31.376-1.171c-13.623-2.601-17.541-22.597-21.086-33.278c-5.357-16.127-11.551-31.97-16.899-48.089
			l0.658-4.625c1.796-0.553,3.536-1.227,5.292-1.853l25.491,28.458c10.153,11.331,24.191,17.103,38.294,17.103
			c12.201,0,24.451-4.324,34.262-13.103c21.142-18.931,22.931-51.421,3.991-72.556l-16.208-18.102
			c28.336,6.861,56.843,14.908,84.082,23.516c15.038,4.755,21.419-18.793,6.487-23.516c-12.664-3.999-25.646-7.82-38.708-11.526
			l2.691-0.065C454.499,309.138,476.926,285.573,476.227,257.204z M194.897,196.37c2.658,0,5.121,0.862,7.202,2.317
			c1.447,1.008,2.699,2.3,3.69,3.82c0.992,1.52,1.715,3.243,2.113,5.113c0.236,1.04,0.374,2.113,0.374,3.235
			c0,7.999-5.991,14.485-13.38,14.485c-4.089,0-7.706-2.032-10.161-5.162c-1.975-2.528-3.219-5.747-3.219-9.323
			C181.517,202.848,187.508,196.37,194.897,196.37z M231.809,237.159c14.355,0,28.027,1.796,40.342,4.885
			c10.161,2.552,19.354,5.991,27.141,10.144c16.282,8.681,26.491,20.346,26.491,32.994c0,26.028-43.033,48.024-93.974,48.024
			s-93.983-21.996-93.983-48.024C137.826,259.155,180.867,237.159,231.809,237.159z M285.945,209.286
			c0,8.868-7.527,16.054-16.818,16.054c-2.869,0-5.527-0.748-7.893-1.959c-3.227-1.65-5.828-4.227-7.364-7.413
			c-0.967-2.016-1.544-4.235-1.561-6.584c-0.008-0.033-0.008-0.065-0.008-0.098c0-8.868,7.527-16.046,16.818-16.046
			c6.674,0,12.388,3.739,15.103,9.112C285.295,204.45,285.945,206.783,285.945,209.286z"/>
		<ellipse style="fill:#010002;" cx="196.62" cy="281.045" rx="18.143" ry="26.418"/>
		<ellipse style="fill:#010002;" cx="260.437" cy="285.784" rx="19.647" ry="31.157"/>
	</g>
</g>
<g>
</g>
<g>
</g>
<g>
</g>
<g>
</g>
<g>
</g>
<g>
</g>
<g>
</g>
<g>
</g>
<g>
</g>
<g>
</g>
<g>
</g>
<g>
</g>
<g>
</g>
<g>
</g>
<g>
</g>
</svg>
