<?xml version="1.0" encoding="iso-8859-1"?>
<!-- Generator: Adobe Illustrator 18.1.1, SVG Export Plug-In . SVG Version: 6.00 Build 0)  -->
<svg version="1.1" id="Capa_1" xmlns="http://www.w3.org/2000/svg" xmlns:xlink="http://www.w3.org/1999/xlink" x="0px" y="0px"
	 viewBox="0 0 456.558 456.558" style="enable-background:new 0 0 456.558 456.558;" xml:space="preserve">
<g>
	<g>
		<path style="fill:#010002;" d="M456.558,396.8V147.838v-64.85V25.894h-23.15V0.508H383.4v25.377H231.258V0.508h-49.714v25.377
			h-46.211v57.103H0V396.8h72.873v28.019v24.54v6.69h92.576v-31.23h-50.194V396.8h73.612v28.019v24.54v6.69h92.576v-31.23H231.25
			V396.8h91.463v28.019v24.54v6.69h92.576v-31.23h-50.194v-28.019L456.558,396.8L456.558,396.8z M439.455,193.936H339.441V147.83
			V93.922h100.014v53.909V193.936z M206.344,147.838V83.298h110.792v64.541v46.252H206.344
			C206.344,194.09,206.344,147.838,206.344,147.838z M261.74,328.894v-11.526v-15.615v-48.706h34.205v48.706H405.25v-37.172h34.205
			v64.321h-7.438H405.25H261.74V328.894z"/>
		<polygon style="fill:#010002;" points="214.627,147.838 214.627,181.922 296.425,181.922 296.425,147.838 296.425,100.124 
			214.627,100.124 		"/>
		<polygon style="fill:#010002;" points="345.473,147.838 345.473,178.597 409.022,178.597 409.022,147.838 409.022,115.048 
			345.473,115.048 		"/>
	</g>
</g>
<g>
</g>
<g>
</g>
<g>
</g>
<g>
</g>
<g>
</g>
<g>
</g>
<g>
</g>
<g>
</g>
<g>
</g>
<g>
</g>
<g>
</g>
<g>
</g>
<g>
</g>
<g>
</g>
<g>
</g>
</svg>
