<?xml version="1.0" encoding="iso-8859-1"?>
<!-- Generator: Adobe Illustrator 18.1.1, SVG Export Plug-In . SVG Version: 6.00 Build 0)  -->
<svg version="1.1" id="Capa_1" xmlns="http://www.w3.org/2000/svg" xmlns:xlink="http://www.w3.org/1999/xlink" x="0px" y="0px"
	 viewBox="0 0 341.603 341.603" style="enable-background:new 0 0 341.603 341.603;" xml:space="preserve">
<g>
	<g>
		<path style="fill:#010002;" d="M326.686,95.668c8.133,0,14.917-6.784,14.917-14.917s-6.784-14.917-14.917-14.917h-1.492
			c-0.77,0-1.51,0.113-2.244,0.233c-10.77-35.527-43.743-61.393-82.784-61.393c-27.991,0-52.807,13.348-68.619,33.969
			c-15.812-20.622-40.628-33.969-68.619-33.969c-39.495,0-72.742,26.493-83.107,62.652h-4.905C6.784,67.325,0,74.109,0,82.242
			s6.784,14.917,14.917,14.917h1.736c1.158,16.797,7.13,32.251,16.516,45.062c-0.167,0.853-0.322,1.724-0.352,2.673
			c-1.36,42.126-1.677,84.324-9.911,125.811c-3.729,18.79,25.025,26.791,28.766,7.93c7.297-36.768,9.034-73.947,10.257-111.252
			c8.366,4.511,17.572,7.65,27.304,9.201l0.221,115.483c-13.312-3.741-27.43,13.414-14.977,24.476
			c12.614,11.206,27.818,9.046,43.367,8.843c12.143-0.155,16.606-12.113,13.408-20.842l-0.245-126.486
			c6.003-0.119,11.719-0.567,17.041-1.772c15.585,0.131,31.159,0.274,46.721-0.066c8.801,2.041,18.658,2.011,29.19,1.766
			l-4.236,131.886c-6.212,8.503-2.405,24.16,11.492,24.452c17.662,0.37,36.028,5.997,53.195-0.531
			c17.799-6.772,10.084-35.622-7.93-28.766c-4.732,1.802-9.756,2.309-14.881,2.25l4.29-133.539
			c8.771-2.751,16.958-6.832,24.297-12.047c15.377,37.406,18.551,72.861,18.599,114.474c0.024,19.237,29.858,19.237,29.834,0
			c-0.03-24.082-0.436-48.248-3.735-72.145c-3.341-24.22-12.232-43.839-22.382-65.433c8.175-12.447,13.205-27.125,14.016-42.926
			h0.167V95.668z M224.354,46.859c11.695,0,21.176,8.586,21.176,19.183s-9.481,19.183-21.176,19.183s-21.176-8.586-21.176-19.183
			S212.659,46.859,224.354,46.859z M110.387,52.826c10.711,0,19.392,8.586,19.392,19.183c0,10.597-8.682,19.183-19.392,19.183
			s-19.392-8.586-19.392-19.183S99.677,52.826,110.387,52.826z M262.542,126.994H71.602c-11.546,0-11.546-17.901,0-17.901h190.94
			C274.088,109.093,274.088,126.994,262.542,126.994z"/>
	</g>
</g>
<g>
</g>
<g>
</g>
<g>
</g>
<g>
</g>
<g>
</g>
<g>
</g>
<g>
</g>
<g>
</g>
<g>
</g>
<g>
</g>
<g>
</g>
<g>
</g>
<g>
</g>
<g>
</g>
<g>
</g>
</svg>
