<?xml version="1.0" encoding="iso-8859-1"?>
<!-- Generator: Adobe Illustrator 18.1.1, SVG Export Plug-In . SVG Version: 6.00 Build 0)  -->
<svg version="1.1" id="Capa_1" xmlns="http://www.w3.org/2000/svg" xmlns:xlink="http://www.w3.org/1999/xlink" x="0px" y="0px"
	 viewBox="0 0 504.293 504.293" style="enable-background:new 0 0 504.293 504.293;" xml:space="preserve">
<g>
	<g>
		<path style="fill:#010002;" d="M46.762,123.705c-5.275,19.11-3.999,34.132,3.82,44.691c8.446,11.413,24.093,17.2,46.479,17.2
			c17.777,0,35.115-3.65,43.398-5.682c1.861,31.669,15.696,36.57,24.052,36.57c10.112,0,21.102-6.966,30.165-16.599
			c2.113,12.729,3.772,25.483,4.698,38.245c1.666,22.971-6.227,42.683-21.029,59.997c-18.476,21.622-39.147,6.934-62.265-2.43
			c-35.432-14.339-76.872,15.314-86.106,48.893c-11.006,40.025,13.55,71.8,48.893,86.106c7.015,2.845,13.949,5.202,20.834,7.299
			l-17.355,44.081c-3.284,8.348,0.821,17.793,9.177,21.077c1.951,0.772,3.967,1.138,5.942,1.138c6.487,0,12.616-3.902,15.135-10.307
			l19.175-48.706c24.654,3.512,48.105,1.935,70.052-4.227l15.639,44.756c2.341,6.706,8.624,10.9,15.347,10.9
			c1.78,0,3.585-0.293,5.365-0.91c8.47-2.959,12.941-12.234,9.982-20.712l-16.07-46.008c32.197-16.688,60.151-44.61,82.229-82.952
			c26.32-45.699,28.45-96.949,21.825-148.598c1.219,0.187,2.43,0.285,3.625,0.285c8.364,0,22.199-4.902,24.052-36.57
			c8.283,2.032,25.621,5.682,43.39,5.682c0.008,0,0.008,0,0.008,0c22.394,0,38.034-5.788,46.487-17.2
			c7.82-10.559,9.096-25.581,3.82-44.691c9.356-6.096,37.115-25.971,35.571-46.016c-0.764-9.868-8.316-17.834-22.451-23.679
			l-0.797-0.236c-0.39-0.065-23.28-4.202-46.999,8.307c-9.592,4.771-68.394,34.579-104.095,64.687
			c-4.536-19.671-9.039-38.952-12.607-57.518c-16.997-88.61-151.915-50.982-134.999,37.221c2.097,10.949,4.487,21.939,6.942,32.945
			c-35.888-27.954-87.675-54.193-96.567-58.623C57.663,49.548,34.83,53.71,34.431,53.767l-0.797,0.236
			C19.499,59.847,11.948,67.822,11.192,77.69C9.639,97.735,37.398,117.609,46.762,123.705z M255.155,50.369
			c0-11.161,9.08-20.24,20.24-20.24s20.24,9.08,20.24,20.24v3.715c0,11.161-9.08,20.24-20.24,20.24s-20.24-9.08-20.24-20.24V50.369z
			 M240.084,111.61c0.398,8.576,0.626,18.249,3.967,26.296c2.65,6.389,9.112,16.948,17.81,15.103
			c18.688-3.975,11.925-39.033,10.478-51.828c-1.349-11.933,17.062-15.038,18.419-3.073c2.715,23.979,6.747,71.743-28.71,73.458
			c-30.498,1.479-39.285-33.221-40.375-56.884C221.12,102.799,239.531,99.621,240.084,111.61z M208.968,39.233
			c12.112,0,21.963,9.852,21.963,21.972c0,12.705-9.852,22.557-21.963,22.557c-12.112,0-21.972-9.852-21.972-21.972
			C186.996,49.085,196.856,39.233,208.968,39.233z"/>
		<path style="fill:#010002;" d="M208.968,75.633c7.625,0,13.835-6.21,13.835-13.843c0-8.226-6.21-14.428-13.835-14.428
			c-7.633,0-13.843,6.21-13.843,13.843C195.125,69.423,201.327,75.633,208.968,75.633z"/>
		<path style="fill:#010002;" d="M275.403,66.196c6.674,0,12.112-5.43,12.112-12.112v-3.715c0-6.682-5.438-12.112-12.112-12.112
			s-12.112,5.43-12.112,12.112v3.715C263.283,60.766,268.721,66.196,275.403,66.196z"/>
	</g>
</g>
<g>
</g>
<g>
</g>
<g>
</g>
<g>
</g>
<g>
</g>
<g>
</g>
<g>
</g>
<g>
</g>
<g>
</g>
<g>
</g>
<g>
</g>
<g>
</g>
<g>
</g>
<g>
</g>
<g>
</g>
</svg>
