<?xml version="1.0" encoding="iso-8859-1"?>
<!-- Generator: Adobe Illustrator 18.1.1, SVG Export Plug-In . SVG Version: 6.00 Build 0)  -->
<svg version="1.1" id="Capa_1" xmlns="http://www.w3.org/2000/svg" xmlns:xlink="http://www.w3.org/1999/xlink" x="0px" y="0px"
	 viewBox="0 0 472.401 472.401" style="enable-background:new 0 0 472.401 472.401;" xml:space="preserve">
<g>
	<g>
		<path style="fill:#010002;" d="M24.038,389.152c1.398,3.349,4.446,5.909,9.234,5.779c74.441-2.073,150.891-22.402,225.186-11.786
			c55.526,7.934,97.933,32.4,146.705-7.901c44.618-36.863,51.933-90.138,38.489-140.681c31.498-24.239,38.204-69.255,14.688-101.615
			c-5.796-7.974-12.916-14.412-20.809-19.305c-1.658,4.893-6.235,8.446-11.697,8.446c-6.844,0-12.396-5.552-12.396-12.396
			c0-1.902,0.463-3.682,1.227-5.292c-17.842-3.942-37.042-1.309-53.64,8.616c-73.141-52.494-176.431-48.552-251.88-3.975
			C22.843,160.04-29.7,291.804,18.112,384.495C19.283,386.779,21.567,388.38,24.038,389.152z M22.802,297.755
			c0.618-25.02,7.291-49.357,15.834-72.678c16.038-43.797,49.015-78.993,88.626-102.396C194.86,82.738,282.6,87.98,347.84,129.298
			c41.033,25.995,67.768,69.158,77.701,116.019c3.3,15.574,3.211,32.311,0.203,48.519c-94.145-1.227-191.574-28.588-291.328-23.922
			c-15.558,0.732-21.98,21.053-6.478,23.516c11.868,1.886,23.857,3.398,35.928,4.633c-1.406,3.195-3.089,6.413-3.219,10.031
			c-0.244,6.535,2.057,12.038,7.007,16.347c8.836,7.69,21.216,7.364,32.067,9.445c12.03,2.317,29.881,8.242,41.374,1.154
			c11.599-7.153,10.933-20.638,14.493-32.352c51.982,0.593,112.467,15.013,163.173,15.461
			c-12.803,32.108-38.464,57.957-74.88,61.338c-25.946,2.414-54.689-11.494-79.847-16.574c-20.11-4.056-40.968-3.837-61.33-2.934
			c-54.624,2.414-108.63,11.616-163.287,13.697c-1.569-2.869-4.487-4.967-8.754-4.967C24.509,368.725,22.599,305.989,22.802,297.755
			z"/>
		<path style="fill:#010002;" d="M279.007,257.022c40.684,0,73.669-32.978,73.669-73.661S319.699,109.7,279.007,109.7
			c-40.684,0-73.661,32.978-73.661,73.661C205.346,224.037,238.323,257.022,279.007,257.022z M258.182,129.631
			c11.226,0,20.321,9.096,20.321,20.321s-9.096,20.321-20.321,20.321c-11.226,0-20.321-9.096-20.321-20.321
			S246.956,129.631,258.182,129.631z"/>
	</g>
</g>
<g>
</g>
<g>
</g>
<g>
</g>
<g>
</g>
<g>
</g>
<g>
</g>
<g>
</g>
<g>
</g>
<g>
</g>
<g>
</g>
<g>
</g>
<g>
</g>
<g>
</g>
<g>
</g>
<g>
</g>
</svg>
