<?xml version="1.0" encoding="iso-8859-1"?>
<!-- Generator: Adobe Illustrator 18.1.1, SVG Export Plug-In . SVG Version: 6.00 Build 0)  -->
<svg version="1.1" id="Capa_1" xmlns="http://www.w3.org/2000/svg" xmlns:xlink="http://www.w3.org/1999/xlink" x="0px" y="0px"
	 viewBox="0 0 464.296 464.296" style="enable-background:new 0 0 464.296 464.296;" xml:space="preserve">
<g>
	<g>
		<ellipse style="fill:#010002;" cx="241.646" cy="80.058" rx="25.109" ry="23.54"/>
		<path style="fill:#010002;" d="M9.592,253.937l36.538,20.549c0.317,1.122,0.683,2.203,1.016,3.316l-15.729,22.752
			c-5.105,7.389-2.495,16.111,5.853,19.411c9.917,3.926,23.166,9.08,34.847,13.355c7.194,11.339,15.314,21.679,24.239,30.799
			c-14.802,21.362-26.564,43.992-28.645,71.231c-1.252,16.387,24.223,16.265,25.459,0c1.553-20.338,10.803-38.091,22.134-54.575
			c11.152,8.348,23.191,14.948,35.863,19.647v9.657c0,4.91,2.455,17.192,0.325,21.671c-7.007,14.745,14.94,27.678,21.988,12.851
			c3.707-7.795,3.609-15.469,3.211-23.931c-0.211-4.552-0.187-9.128-0.179-13.705c6.17,0.935,12.429,1.504,18.793,1.504
			c20.476,0,40.025-5.015,57.989-14.046c1.496,2.032,2.999,4.048,4.438,6.153c10.218,14.973,10.819,29.938,10.86,47.503
			c0.033,16.42,25.499,16.42,25.459,0c-0.041-17.411-0.154-35.026-8.462-50.722c-3.008-5.682-6.609-11.144-10.421-16.477
			c11.006-8.218,21.118-18.135,30.222-29.377c37.773,5.267,67.735,31.685,76.823,70.255c3.764,15.981,28.312,9.202,24.556-6.771
			c-10.348-43.967-43.683-75.913-85.423-86.325c19.346-32.376,31.108-72.45,32.189-115.979c0.431-0.317,0.862-0.593,1.301-0.935
			l98.957-78.4c4.593-3.642,7.779-7.657,9.73-11.795c-34.668,0.382-77.734,1.122-105.533,1.203c-1.325,0-2.471-0.26-3.471-0.699
			c-6.178-2.666-6.267-12.42-0.317-15.387c1.081-0.536,2.317-0.886,3.796-0.894c28.003-0.081,71.499-0.837,106.297-1.211
			c-2.309-5.755-7.267-10.99-14.867-14.883c-31.685-16.216-77.693-40.049-111.809-58.883
			c-10.941-17.078-28.686-26.897-57.428-26.897c-158.654,0-220.569,60.712-237.826,144.022l-16.395,2.26
			c-11.778,1.626-15.834,10.567-9.063,19.964l20.094,27.881c-0.057,2.707-0.114,5.422-0.114,8.153c0,0.374,0.024,0.748,0.024,1.122
			l-29.117,20.37C-3.268,235.412-2.455,247.166,9.592,253.937z M241.646,44.935c20.687,0,37.456,15.721,37.456,35.115
			s-16.769,35.115-37.456,35.115S204.19,99.445,204.19,80.05C204.19,60.664,220.959,44.935,241.646,44.935z"/>
	</g>
</g>
<g>
</g>
<g>
</g>
<g>
</g>
<g>
</g>
<g>
</g>
<g>
</g>
<g>
</g>
<g>
</g>
<g>
</g>
<g>
</g>
<g>
</g>
<g>
</g>
<g>
</g>
<g>
</g>
<g>
</g>
</svg>
