<?xml version="1.0" encoding="iso-8859-1"?>
<!-- Generator: Adobe Illustrator 18.1.1, SVG Export Plug-In . SVG Version: 6.00 Build 0)  -->
<svg version="1.1" id="Capa_1" xmlns="http://www.w3.org/2000/svg" xmlns:xlink="http://www.w3.org/1999/xlink" x="0px" y="0px"
	 viewBox="0 0 460.33 460.33" style="enable-background:new 0 0 460.33 460.33;" xml:space="preserve">
<g>
	<g>
		<path style="fill:#010002;" d="M52.438,302.225c11.38,0,22.898,1.65,34.213,4.706c7.73,28.328,8.291,58.42-0.268,84.773
			c-18.744,57.697,5.844,75.563,54.925,39.903c15.956-11.591,35.156-19.346,55.461-23.402c18.606,55.567,48.194,55.567,66.801,0
			c20.305,4.056,39.505,11.811,55.461,23.402c49.08,35.66,73.669,17.793,54.925-39.903c-8.559-26.353-7.999-56.445-0.268-84.773
			c11.315-3.056,22.833-4.706,34.213-4.706c60.664,0,70.06-28.905,20.98-64.565c-3.203-2.325-6.291-4.845-9.283-7.495
			c2.991-2.65,6.072-5.17,9.283-7.495c49.08-35.66,39.684-64.565-20.98-64.565c-10.925,0-21.963,0.154-32.839,0.081
			c-9.023-29.702-10.153-61.72-1.105-89.561c18.745-57.697-5.844-75.563-54.925-39.903s-128.651,35.66-177.731,0
			S67.63,10.929,86.375,68.626c9.047,27.849,7.917,59.859-1.105,89.561c-10.876,0.073-21.915-0.081-32.839-0.081
			c-60.664,0-70.06,28.905-20.98,64.565c3.203,2.325,6.292,4.845,9.283,7.495c-2.991,2.65-6.072,5.17-9.283,7.495
			C-17.614,273.32-8.226,302.225,52.438,302.225z M157.735,224.548c-33.408,0-60.493,29.848-60.493-3.56
			s27.084-60.493,60.493-60.493s60.493,27.084,60.493,60.493S191.144,224.548,157.735,224.548z M238.672,220.988
			c0-33.408,27.084-60.493,60.493-60.493s60.493,27.084,60.493,60.493s-27.084,3.56-60.493,3.56S238.672,254.396,238.672,220.988z"
			/>
	</g>
</g>
<g>
</g>
<g>
</g>
<g>
</g>
<g>
</g>
<g>
</g>
<g>
</g>
<g>
</g>
<g>
</g>
<g>
</g>
<g>
</g>
<g>
</g>
<g>
</g>
<g>
</g>
<g>
</g>
<g>
</g>
</svg>
