<?xml version="1.0" encoding="iso-8859-1"?>
<!-- Generator: Adobe Illustrator 18.1.1, SVG Export Plug-In . SVG Version: 6.00 Build 0)  -->
<svg version="1.1" id="Capa_1" xmlns="http://www.w3.org/2000/svg" xmlns:xlink="http://www.w3.org/1999/xlink" x="0px" y="0px"
	 viewBox="0 0 488.864 488.864" style="enable-background:new 0 0 488.864 488.864;" xml:space="preserve">
<g>
	<g>
		<path style="fill:#010002;" d="M482.824,392.07c-6.316-4.235-6.113-12.193-6.153-19.273c0-0.276-0.065-0.512-0.081-0.78
			c0.894-62.663,10.779-143.925-17.615-207.474c0.024-0.13,0.073-0.244,0.089-0.382c2.886-22.126,6.454-44.122,8.129-66.386
			c0.699-9.283,0.805-26.954-9.486-31.945c-13.445-6.519-26.101-2.016-39.562,2.609c-19.704,6.771-41.895,7.462-62.915,8.535
			c-29.19-9.169-64.98-14.42-109.191-14.42c-42.984,0-78.099,4.837-106.874,13.388c-11.811-3.731-24.41-5.088-35.668-10.372
			c-13.258-6.218-25.792-13.583-39.489-18.842c-5.113-1.967-11.12,1.276-13.77,5.601c-7.389,12.047-5.788,27.531-4.902,41.017
			c0.975,14.835,0.927,29.564,1.837,44.309C0.962,203.089,14.155,298.445,15.455,370.155c-0.423,1.203-0.723,2.504-0.748,3.991
			c-0.081,4.056-0.886,7.934-2.447,13.111c-0.764,2.52-1.593,4.365-2.951,6.722c-0.236,0.406-0.382,0.675-0.471,0.87
			c-0.024,0.016-0.049,0.033-0.073,0.049l0,0c-15.355,3.398-8.844,26.906,6.487,23.516c15.363-3.398,21.882-23.069,23.467-38.172
			h28.344c-0.585,11.209-7.259,22.89-11.258,32.661c-2.52,6.161,2.682,13.396,8.519,14.997c6.991,1.926,12.485-2.374,14.997-8.519
			c5.3-12.949,11.128-25.572,11.868-39.139h34.173c-0.179,3.788-0.366,7.568-0.423,11.356c-0.122,8.088-0.569,18.956,5.804,25.036
			c10.681,10.21,26.572-4.398,18.98-15.225c-0.024-0.667-0.301-2.902-0.293-2.788c-0.203-3.593-0.106-7.202-0.024-10.795
			c0.057-2.528,0.195-5.056,0.325-7.592h39.163c0.008,0.163,0.016,0.268,0.024,0.447c0.317,4.78,0.041,9.624-0.073,14.412
			c-0.203,8.974,0.106,17.509,3.666,25.841c2.609,6.121,11.494,7.413,16.68,4.373c6.259-3.666,6.982-10.567,4.373-16.68
			c-2.398-5.617-0.089-18.81-0.195-26.036c-0.008-0.756-0.057-1.561-0.089-2.357h86.959c-0.098,14.566,1.341,28.572,12.047,40.456
			c10.543,11.705,27.735-5.592,17.241-17.241c-5.3-5.885-5.95-14.575-5.584-23.215h33.01c1.87,10.657,4.617,21.004,8.974,31.214
			c2.609,6.121,11.494,7.413,16.68,4.373c6.267-3.666,6.982-10.567,4.373-16.68c-2.577-6.04-4.3-12.429-5.568-18.907h24.126
			c4.219,17.306,13.884,32.815,15.623,50.804c1.496,15.509,25.898,15.656,24.386,0c-1.731-17.915-11.331-33.766-15.574-50.804
			h22.728c1.203,13.282,5.796,24.8,17.85,32.88c5.527,3.707,13.477,1.089,16.68-4.373
			C490.717,402.751,488.335,395.76,482.824,392.07z M82.435,287.447c-20.964,0-20.964-32.514,0-32.514
			S103.406,287.447,82.435,287.447z M70.38,112.114c-0.049-3.869-0.098-7.747-0.211-11.632c-0.203-7.202-2.26-16.972-1.683-25.459
			c9.454,4.503,18.631,9.697,28.084,14.127c1.618,0.764,3.341,1.268,5.015,1.878C89.71,97.238,79.346,104.302,70.38,112.114z
			 M266.279,320.294c-2.284,23.654-13.973,41.659-28.044,41.659c-15.713,0-28.45-22.443-28.45-50.129h56.9
			C266.685,314.718,266.547,317.547,266.279,320.294z M423.835,306.411c-20.964,0-20.964-32.514,0-32.514
			S444.806,306.411,423.835,306.411z M442.864,93.345c0.016,6.381-0.707,12.713-1.325,19.053
			c-0.626,6.438-1.447,12.859-2.325,19.273c-10.421-13.209-23.508-25.02-39.822-35.01c12.315-1.951,24.524-4.601,36.668-8.527
			C446.538,84.761,442.847,86.118,442.864,93.345z"/>
	</g>
</g>
<g>
</g>
<g>
</g>
<g>
</g>
<g>
</g>
<g>
</g>
<g>
</g>
<g>
</g>
<g>
</g>
<g>
</g>
<g>
</g>
<g>
</g>
<g>
</g>
<g>
</g>
<g>
</g>
<g>
</g>
</svg>
