<?xml version="1.0" encoding="iso-8859-1"?>
<!-- Generator: Adobe Illustrator 18.1.1, SVG Export Plug-In . SVG Version: 6.00 Build 0)  -->
<svg version="1.1" id="Capa_1" xmlns="http://www.w3.org/2000/svg" xmlns:xlink="http://www.w3.org/1999/xlink" x="0px" y="0px"
	 viewBox="0 0 467.05 467.05" style="enable-background:new 0 0 467.05 467.05;" xml:space="preserve">
<g>
	<g>
		<path style="fill:#010002;" d="M200.935,144.672c7.551,0,14.42-2.691,19.939-7.015c5.007,4.324,11.965,7.015,19.671,7.015
			c15.257,0,27.629-10.51,27.629-23.475c0-5.219-2.073-9.998-5.471-13.9c0.658-2.365,1.13-4.812,1.13-7.397
			c0-14.729-11.534-26.662-25.759-26.662c-1.861,0-3.674,0.228-5.43,0.618c-2.439-9.071-10.567-15.778-20.33-15.778
			c-11.681,0-21.151,9.559-21.151,21.346c0,0.553,0.122,1.073,0.163,1.609c-13.25,4.129-22.939,16.371-22.939,31.011
			C168.396,130.073,182.963,144.672,200.935,144.672z"/>
		<path style="fill:#010002;" d="M42.623,151.736c-0.13,14.916-1.146,31.084,9.827,42.886c9.128,9.819,21.614,14.656,33.847,19.687
			c3.292,77.579,32.896,143.673,74.75,175.845c-5.633,13.201-12.128,25.995-19.224,38.578c-2.577,4.568-2.203,11.128,1.91,14.778
			c11.567,10.275,25.255,15.647,39.05,22.224c14.119,6.739,26.499-14.282,12.307-21.053c-8.974-4.284-18.598-7.836-27.028-13.201
			c5.032-9.38,9.714-18.915,13.981-28.637c11.648,5.316,23.939,8.226,36.668,8.226c40.35,0,76.466-28.678,100.811-73.881
			c17.875,7.462,39.602,13.201,57.875,14.461c23.825,1.642,35.628-18.81,45.609-37.96c7.259-13.924-13.786-26.255-21.053-12.307
			c-3.154,6.048-8.153,11.697-12.128,17.233c-7.21,10.031-11.193,9.185-22.606,6.438c-12.29-2.967-25.312-5.471-37.253-10.031
			c11.908-29.068,19.452-63.078,21.126-99.681c13.298-4.373,26.353-9.909,36.936-18.948c15.217-13.006,21.378-30.563,23.101-50.064
			c1.382-15.672-23.02-15.542-24.386,0c-2.048,23.305-16.298,34.774-34.327,42.358C352.785,77.742,287.447,0,218.704,0
			C150.294,0,93.987,82.351,86.769,188.144c-4.202-1.886-8.34-3.877-12.258-6.292c-10.218-6.316-7.6-19.996-7.511-30.116
			C67.147,135.999,42.761,136.015,42.623,151.736z M276.856,249.442c-12.591,0-12.591-19.525,0-19.525
			C289.439,229.925,289.439,249.442,276.856,249.442z M197.684,251.612c-12.591,0-12.591-19.525,0-19.525
			C210.267,232.095,210.267,251.612,197.684,251.612z M327.578,279.314c-9.665,17.956-22.573,15.656-40.984,15.054
			c-29.783-0.967-59.591-0.967-89.374-2.162c-27.052-1.089-79.132,9.681-81.969-27.572c-0.959-12.559,18.574-12.469,19.525,0
			c0.919,12.112,85.878,8.616,97.649,8.958c14.046,0.406,70.548,10.258,78.294-4.121
			C316.694,258.375,333.545,268.235,327.578,279.314z M152.375,79.156c10.949-17.42,34.132-46.642,66.329-46.642
			c20.053,0,40.716,10.429,58.176,29.369c25.418,27.572,40.537,69.215,42.667,115.174c-9.202-0.179-20.045,0.569-32.14,1.618H151.57
			c-11.681-1.008-22.167-1.731-31.165-1.618C124.583,139.877,135.557,105.923,152.375,79.156z"/>
	</g>
</g>
<g>
</g>
<g>
</g>
<g>
</g>
<g>
</g>
<g>
</g>
<g>
</g>
<g>
</g>
<g>
</g>
<g>
</g>
<g>
</g>
<g>
</g>
<g>
</g>
<g>
</g>
<g>
</g>
<g>
</g>
</svg>
