<?xml version="1.0" encoding="iso-8859-1"?>
<!-- Generator: Adobe Illustrator 18.1.1, SVG Export Plug-In . SVG Version: 6.00 Build 0)  -->
<svg version="1.1" id="Capa_1" xmlns="http://www.w3.org/2000/svg" xmlns:xlink="http://www.w3.org/1999/xlink" x="0px" y="0px"
	 viewBox="0 0 502.614 502.614" style="enable-background:new 0 0 502.614 502.614;" xml:space="preserve">
<g>
	<g>
		<path style="fill:#010002;" d="M445.031,157.337c-10.218,0-19.793,2.691-28.109,7.356l-5.08-38.887
			c0-44.894-36.392-81.286-81.286-81.286H177.471c-44.894,0-81.286,36.392-81.286,81.286l-5.495,42.057
			c-9.372-6.609-20.777-10.527-33.116-10.527C25.776,157.337,0,183.112,0,214.911v16.257c0,31.799,25.776,57.575,57.575,57.575
			c6.178,0,12.112-1,17.688-2.796l-2.048,15.688c-15.461,5.43-29.653,14.859-39.212,28.361
			c-15.241,21.533-15.241,45.788-13.859,71.182c0.854,15.639,25.239,15.721,24.386,0c-0.902-16.477-2.471-33.644,4.357-49.162
			c4.463-10.144,13.835-18.704,24.402-24.256c6.877,36.066,37.562,63.614,75.084,65.776c-0.13,1.146-0.35,2.268-0.35,3.455v31.149
			c0,16.542,13.412,29.954,29.954,29.954s29.954-13.412,29.954-29.954v-31.149c0-1.114-0.211-2.162-0.325-3.243h78.928
			c-0.114,1.081-0.325,2.13-0.325,3.243v31.149c0,16.542,13.412,29.954,29.954,29.954s29.954-13.412,29.954-29.954v-31.149
			c0-1.114-0.211-2.162-0.325-3.243h9.153c40.497,0,73.986-29.653,80.172-68.41c22.142,14.9,23.435,47.138,22.622,74.49
			c-0.471,15.737,23.914,15.688,24.386,0c1.227-40.984-6.381-87.862-47.829-102.217l-1.325-10.153
			c3.894,0.829,7.925,1.292,12.071,1.292c31.799,0,57.575-25.776,57.575-57.575V214.92
			C502.614,183.112,476.83,157.337,445.031,157.337z M271.112,61.363c3.568-2.682,8.681-1.943,11.372,1.658l15.298,20.5
			c1.975,2.642,2.065,6.08,0.561,8.795c-0.545,0.975-1.268,1.87-2.219,2.585c-1.455,1.089-3.162,1.609-4.853,1.609
			c-1.268,0-2.512-0.309-3.65-0.878c-1.097-0.553-2.089-1.341-2.869-2.39l-15.298-20.5
			C266.772,69.142,267.511,64.045,271.112,61.363z M204.751,82.164l24.386-20.5c3.447-2.878,8.559-2.447,11.453,0.992
			c2.886,3.438,2.447,8.568-0.992,11.453l-23.662,19.899l-0.723,0.602c-1.528,1.276-3.381,1.902-5.227,1.902
			c-2.317,0-4.617-0.984-6.226-2.894c-0.788-0.935-1.276-2.008-1.577-3.113C201.385,87.545,202.255,84.261,204.751,82.164z
			 M57.575,260.293c-20.573,0-37.253-16.68-37.253-37.253s16.68-37.253,37.253-37.253c11.754,0,22.11,5.552,28.938,14.054
			c5.121,6.381,8.316,14.379,8.316,23.199c0,12.315-6.048,23.15-15.257,29.929C73.393,257.521,65.833,260.293,57.575,260.293z
			 M382.718,272.519c0,27.702-13.884,52.129-35.034,66.801l-23.565-60.68L256.7,346.058l-67.418-67.418l-24.621,63.411
			c-23.557-14.233-39.35-40.009-39.35-69.54v-74.206c0-20.338,7.519-38.887,19.866-53.137l42.545,57.12l48.324-85.269h36.343
			l48.324,85.269l42.358-56.868c12.209,14.225,19.639,32.677,19.639,52.893v74.206H382.718z M445.031,260.293
			c-5.804,0-11.226-1.439-16.119-3.804c-12.469-6.023-21.142-18.679-21.142-33.449c0-11.307,5.145-21.313,13.095-28.141
			c6.519-5.601,14.892-9.112,24.166-9.112c20.573,0,37.253,16.68,37.253,37.253S465.613,260.293,445.031,260.293z"/>
		<circle style="fill:#010002;" cx="57.575" cy="223.04" r="24.207"/>
		<path style="fill:#010002;" d="M445.031,199.329c-9.73,0-18.07,5.869-21.72,14.249c-1.268,2.902-1.983,6.088-1.983,9.454
			c0,5.519,1.959,10.527,5.121,14.558c4.341,5.527,11.006,9.153,18.582,9.153c13.095,0,23.711-10.616,23.711-23.711
			C468.742,209.937,458.126,199.329,445.031,199.329z"/>
	</g>
</g>
<g>
</g>
<g>
</g>
<g>
</g>
<g>
</g>
<g>
</g>
<g>
</g>
<g>
</g>
<g>
</g>
<g>
</g>
<g>
</g>
<g>
</g>
<g>
</g>
<g>
</g>
<g>
</g>
<g>
</g>
</svg>
