<?xml version="1.0" encoding="iso-8859-1"?>
<!-- Generator: Adobe Illustrator 18.1.1, SVG Export Plug-In . SVG Version: 6.00 Build 0)  -->
<svg version="1.1" id="Capa_1" xmlns="http://www.w3.org/2000/svg" xmlns:xlink="http://www.w3.org/1999/xlink" x="0px" y="0px"
	 viewBox="0 0 491.462 491.462" style="enable-background:new 0 0 491.462 491.462;" xml:space="preserve">
<g>
	<g>
		<path style="fill:#010002;" d="M459.871,104.729c-3.699-6.308-11.526-7.982-17.802-4.666c-4.17,2.203-8.202,5.479-12.217,8.446
			c-2.544-3.089-5.422-5.901-8.633-8.234c5.316-4.089,7.568-11.071,3.959-17.224c-3.398-5.796-11.933-8.665-17.802-4.666
			c-6.795,4.625-14.664,12.12-21.468,14.591c-1.975,0.715-3.715,1.813-5.186,3.146c-1.52,0.675-3.04,1.439-4.568,2.317
			c-11.185,6.381-22.728,11.713-34.49,16.558V86.732C341.665,38.83,302.835,0,254.934,0h-27.466
			c-47.902,0-86.732,38.83-86.732,86.732v34.181c-17.346,0.098-34.685,0.455-52.039,0.512c-1.894,0.008-3.707,0.13-5.462,0.325
			c-0.585-0.122-1.162-0.252-1.764-0.325c-11.055-1.284-22.207-1.439-33.246-2.894c-7.047-0.927-13.006,6.625-13.006,13.006
			c0,7.795,5.983,12.087,13.006,13.006c0.943,0.122,1.902,0.154,2.845,0.26c-1.236,2.682-2.138,5.519-2.845,8.413h-5.771
			c-16.777,0-16.777,26.02,0,26.02h6.503c0.569,1.861,1.268,3.666,2.065,5.43c-1.114,0.276-2.235,0.512-3.341,0.821
			c-16.143,4.495-9.275,29.604,6.917,25.085c7.917-2.203,15.639-3.316,23.744-3.633c3.243,0.715,6.641,1.219,10.388,1.203
			c17.346-0.057,34.693-0.415,52.039-0.512v164.059c0,5.609,0.577,11.079,1.593,16.387c-0.935,3.503-1.593,7.104-1.593,10.876
			v49.145c0,23.638,19.728,43.366,43.366,43.366c20.102,0,37.245-14.314,41.968-33.116c0.471,0.008,0.927,0.073,1.398,0.073h27.466
			c0.471,0,0.927-0.065,1.398-0.073c4.723,18.801,21.866,33.116,41.968,33.116c23.638,0,43.366-19.728,43.366-43.366v-63.598
			c0-1.439-0.293-2.804-0.431-4.202c0.276-2.829,0.431-5.698,0.431-8.6V207.563c26.743-9.86,53.478-20.118,78.262-34.246
			c1.122-0.642,2.057-1.366,3.081-2.057c10.031-2.479,19.801-5.145,29.304-9.697c6.389-3.064,8.031-12.063,4.666-17.802
			c-3.447-5.885-9.998-7.267-15.973-5.21c-0.008-2.146-0.138-4.292-0.463-6.422c4.771-3.276,9.372-6.804,14.656-9.592
			C461.464,119.222,463.334,110.646,459.871,104.729z M185.784,62.029c4.845-4.682,12.559-4.528,17.241,0.341l9.023,9.38
			l2.723,2.837l2.747,2.853c5.178-4.446,10.73-7.673,16.558-9.462v-4.194v-4.17V47.698c0-6.73,5.454-12.193,12.193-12.193
			c6.739,0,12.193,5.462,12.193,12.193v12.681v4.186v4.365c5.414,2.138,10.551,5.544,15.355,9.982l2.52-3.089l2.495-3.048
			l6.682-8.177c4.251-5.21,11.957-5.999,17.151-1.723c5.219,4.251,5.983,11.941,1.723,17.151l-9.982,12.217l-2.601,3.178
			l-2.658,3.251c12.03,20.988,19.549,50.34,19.549,82.855c0,63.59-28.653,115.328-63.874,115.328s-63.874-51.73-63.874-115.328
			c0-33.742,8.112-64.045,20.947-85.155l-2.821-2.934l-2.764-2.878l-10.876-11.307C180.776,74.417,180.931,66.703,185.784,62.029z"
			/>
		<path style="fill:#010002;" d="M244.822,270.763c29.45,0,52.527-39.188,52.527-89.227c0-31.693-9.275-58.989-23.548-74.783
			c-2.796-3.097-5.779-5.739-8.933-7.893c-6.153-4.202-12.908-6.552-20.045-6.552c-4.885,0-9.567,1.171-14.022,3.195
			c-5.796,2.634-11.169,6.804-15.948,12.355c-13.713,15.94-22.557,42.716-22.557,73.677
			C192.295,231.575,215.372,270.763,244.822,270.763z"/>
	</g>
</g>
<g>
</g>
<g>
</g>
<g>
</g>
<g>
</g>
<g>
</g>
<g>
</g>
<g>
</g>
<g>
</g>
<g>
</g>
<g>
</g>
<g>
</g>
<g>
</g>
<g>
</g>
<g>
</g>
<g>
</g>
</svg>
