<?xml version="1.0" encoding="iso-8859-1"?>
<!-- Generator: Adobe Illustrator 18.1.1, SVG Export Plug-In . SVG Version: 6.00 Build 0)  -->
<svg version="1.1" id="Capa_1" xmlns="http://www.w3.org/2000/svg" xmlns:xlink="http://www.w3.org/1999/xlink" x="0px" y="0px"
	 viewBox="0 0 477.409 477.409" style="enable-background:new 0 0 477.409 477.409;" xml:space="preserve">
<g>
	<g>
		<path style="fill:#010002;" d="M330.54,249.832c26.142,15.469,52.218,31.514,70.564,56.372
			c23.435,31.758,23.028,78.904,28.499,116.352c3.78,25.857,42.935,14.818,39.188-10.803c-6.389-43.699-9.535-87.252-32.596-126.058
			c-20.468-34.441-59.948-56.038-93.251-75.75c-5.991-3.544-11.795-3.625-16.72-1.666c-0.837-2.43-1.796-4.812-2.829-7.145
			c60.696-42.114,110.996-103.786,104.802-181.601c-2.065-25.946-42.724-26.141-40.643,0c5.064,63.639-35.619,112.67-85.448,147.054
			c-0.984,0.683-1.788,1.447-2.601,2.203c-16.143-14.054-37.204-22.589-60.298-22.589c-19.452,0-37.44,6.088-52.283,16.387
			c-1.764-5.568-6.015-10.331-13.437-12.274c-24.394-6.397-44.561-23.605-66.646-35.286c-10.949-5.788-21.394-10.713-24.215-23.516
			c-2.812-12.778-8.811-26.54-10.055-39.464c-2.479-25.849-43.146-26.093-40.643,0c1.455,15.135,7.243,28.491,10.266,43.285
			c3.601,17.59,8.145,29.417,22.476,40.936c13.591,10.917,29.897,17.363,44.471,26.719c16.802,10.787,32.969,20.85,52.332,26.166
			c-4.885,7.722-8.714,16.192-11.144,25.247c-4.17-0.829-8.771-0.317-13.51,2.325C65.102,256.717,35.319,329.053,9.616,402.275
			c-8.706,24.792,30.572,35.367,39.188,10.803c21.183-60.355,44.073-120.571,100.144-156.166
			c5.836,28.483,24.833,52.145,50.348,64.435c-2.699,26.702-7.007,53.21-8.641,80.034c-0.415,6.861,4.154,29.1-0.374,34.603
			c-4.438,5.389-25.207-0.26-31.035-1.162c-25.629-3.983-36.644,35.18-10.803,39.188c27.028,4.202,68.077,10.502,79.782-23.093
			c6.56-18.826,2.504-40.269,3.707-59.908c1.236-20.281,4.503-40.391,6.999-60.566c0.098,0,0.187,0.008,0.276,0.008
			c3.65,0,7.218-0.284,10.754-0.699c0.683,60.038-4.357,144.428,74.596,138.885c25.995-1.829,26.166-42.48,0-40.643
			c-24.581,1.723-28.751-6.958-30.482-30.482c-2.024-27.491-2.325-55.087-3.829-82.619
			C311.926,300.383,327.151,276.973,330.54,249.832z M239.208,274.908c-38.156,0-69.093,1.577-69.093-36.579
			s30.937-69.093,69.093-69.093s69.093,30.937,69.093,69.093S277.363,274.908,239.208,274.908z"/>
		<circle style="fill:#010002;" cx="239.208" cy="222.073" r="38.725"/>
	</g>
</g>
<g>
</g>
<g>
</g>
<g>
</g>
<g>
</g>
<g>
</g>
<g>
</g>
<g>
</g>
<g>
</g>
<g>
</g>
<g>
</g>
<g>
</g>
<g>
</g>
<g>
</g>
<g>
</g>
<g>
</g>
</svg>
