<?xml version="1.0" encoding="iso-8859-1"?>
<!-- Generator: Adobe Illustrator 18.1.1, SVG Export Plug-In . SVG Version: 6.00 Build 0)  -->
<svg version="1.1" id="Capa_1" xmlns="http://www.w3.org/2000/svg" xmlns:xlink="http://www.w3.org/1999/xlink" x="0px" y="0px"
	 viewBox="0 0 496.545 496.545" style="enable-background:new 0 0 496.545 496.545;" xml:space="preserve">
<g>
	<g>
		<path style="fill:#010002;" d="M254.741,42.929c-86.773,0-157.109,66.671-157.109,148.915c0,50.934,27.019,95.86,68.174,122.709
			c0.154,8.714,0.585,29.255,0.967,47.268c0.374,17.68,8.681,20.199,18.549,5.625l22.622-33.408c2.536,0.748,5.17,1.268,7.755,1.902
			c1.431,5.251,3.325,12.209,5.422,19.923c4.422,16.265,16.298,18.533,26.515,5.064l15.607-20.565
			c1.195-0.057,2.398-0.089,3.585-0.171c2.585,13.713,11.843,62.346,12.811,61.493c0.862-0.764,20.5-48.389,29.499-70.28
			c2.959-1.04,5.909-2.073,8.779-3.268c2.731,4.755,6.527,11.348,10.738,18.655c8.332,14.469,14.965,11.86,14.827-5.82
			l-0.211-26.125c41.391-26.816,68.581-71.881,68.581-122.993C411.85,109.6,341.505,42.929,254.741,42.929z M277.599,248.744
			c2.463,0,6.186,6.04,6.186,15.152c0,9.104-3.723,15.144-6.186,15.144s-6.186-6.04-6.186-15.144
			C271.413,254.784,275.136,248.744,277.599,248.744z M320.948,240.616c-22.963,0-41.651-19.013-41.651-42.374
			s18.688-42.366,41.651-42.366s41.651,19.005,41.651,42.366S343.911,240.616,320.948,240.616z M252.376,279.04
			c-1.081-0.195-4.601-5.251-4.601-15.144c0-9.917,3.544-14.981,4.593-15.152c1.073,0.171,4.617,5.227,4.617,15.152
			C256.976,273.805,253.457,278.853,252.376,279.04z M201.141,240.616c-22.963,0-41.651-19.013-41.651-42.374
			s18.688-42.366,41.651-42.366s41.651,19.005,41.651,42.366S224.104,240.616,201.141,240.616z"/>
		<path style="fill:#010002;" d="M484.991,325.828c-2.04,0-3.723,0.528-5.227,1.268l-28.409-17.867
			c8.494-24.711,13.144-51.421,13.144-79.302c0-126.586-95.616-229.201-213.562-229.201S37.375,103.332,37.375,229.919
			c0,41.757,10.453,80.863,28.629,114.58l-47.78,23.882c-1.756-1.236-3.95-2.032-6.665-2.032c-15.144,0-15.396,23.345-0.821,24.231
			c-5.609,6.893-2.691,20.346,8.803,20.346c4.121,0,7.104-1.756,9.015-4.292l0.317,0.642c-6.682,6.535-4.064,21.216,7.95,21.216
			c7.462,0,11.282-5.682,11.526-11.559l51.056-25.516c13.762,14.867,29.425,27.686,46.536,38.074l-12.559,27.873
			c-1.674,2-2.756,4.463-3.146,6.982L129,467.094l1.146,0.512c0.431,4.227,3.056,7.999,8.551,9.071
			c14.583,2.845,26.67,10.925,39.7,17.688c13.713,7.121,25.833-13.859,12.079-20.996c-0.512-0.268-1.016-0.545-1.528-0.813
			l9.234-20.5c16.875,4.601,34.538,7.064,52.746,7.064c26.71,0,52.259-5.308,75.823-14.924l36.579,39.472l2.934,3.17l3.43,3.699
			l1.447-1.341c1.756,0.382,3.577,0.35,5.316-0.366c17.989-7.397,29.816-19.785,42.521-34.197
			c10.258-11.64-6.609-28.897-16.924-17.192c-0.642,0.732-1.284,1.471-1.926,2.211l-23.02-24.849
			c19.053-14.997,35.676-33.311,49.186-54.136l21.955,13.81c-0.602,6.487,3.195,13.477,11.469,13.477
			c12.331,0,14.786-15.493,7.405-21.736l0.894-1.431c1.918,2.512,4.885,4.251,8.982,4.251c10.827,0,14.03-11.941,9.673-19.078
			C500.362,348.222,499.826,325.828,484.991,325.828z M250.937,434.734c-104.314,0-189.176-91.877-189.176-204.816
			S146.623,25.103,250.937,25.103s189.176,91.877,189.176,204.816S355.243,434.734,250.937,434.734z"/>
	</g>
</g>
<g>
</g>
<g>
</g>
<g>
</g>
<g>
</g>
<g>
</g>
<g>
</g>
<g>
</g>
<g>
</g>
<g>
</g>
<g>
</g>
<g>
</g>
<g>
</g>
<g>
</g>
<g>
</g>
<g>
</g>
</svg>
