<?xml version="1.0" encoding="iso-8859-1"?>
<!-- Generator: Adobe Illustrator 18.1.1, SVG Export Plug-In . SVG Version: 6.00 Build 0)  -->
<svg version="1.1" id="Capa_1" xmlns="http://www.w3.org/2000/svg" xmlns:xlink="http://www.w3.org/1999/xlink" x="0px" y="0px"
	 viewBox="0 0 479.879 479.879" style="enable-background:new 0 0 479.879 479.879;" xml:space="preserve">
<g>
	<g>
		<path style="fill:#010002;" d="M57.054,188.963c13.38,0,25.654-4.641,35.384-12.347c27.556,7.763,62.257,13.396,100.981,15.997
			c25.93,22.784,35.806,56.136-9.315,103.176c-53.551,55.835-19.33,94.909,34.693,105.436
			c72.393,14.103,72.393,14.103,22.711-17.249c-16.29-10.283,4.268-34.872,51.551-61.037
			c103.176-57.079,65.996-106.476,36.449-134.121c21.858-2.837,41.781-6.698,59.038-11.38c9.551,7.202,21.403,11.526,34.286,11.526
			c31.506,0,57.046-25.54,57.046-57.046s-25.54-57.046-57.046-57.046c-12.884,0-24.735,4.324-34.286,11.526
			c-38.375-10.413-89.894-16.794-146.574-16.794c-58.16,0-110.874,6.722-149.541,17.615c-9.73-7.714-22.004-12.347-35.384-12.347
			C25.54,74.871,0,100.411,0,131.917C0.008,163.423,25.548,188.963,57.054,188.963z M424.271,94.729
			c20.533,0,37.18,16.647,37.18,37.18c0,20.533-16.647,37.18-37.18,37.18c-3.032,0-5.389-0.406-7.299-1.089
			c-3.503-1.252-5.357-3.568-6.227-6.722c1.642,0.325,3.325,0.545,5.056,0.545c15.111,0,27.361-12.989,27.361-29.019
			s-12.25-29.019-27.361-29.019c-1.861,0-3.682,0.203-5.446,0.585c0.634-4.081,2.463-7.064,6.609-8.551
			C418.882,95.135,421.239,94.729,424.271,94.729z M176.276,135.973c39.741-0.098,79.473-1.252,119.222-1.357
			c10.486-0.024,10.486,16.233,0,16.257c-4.52,0.008-9.031,0.089-13.55,0.122v9.364c0,2.886-1.284,4.902-3.073,6.194
			c-3.3,2.398-8.348,2.057-11.152-0.967c-1.187-1.284-2.04-2.967-2.04-5.227v-9.226c-18.964,0.211-37.936,0.48-56.9,0.723v8.494
			c0,0.041-0.024,0.065-0.024,0.114c-0.13,10.356-16.233,10.331-16.233-0.114v-1.301v-7.015c-5.422,0.049-10.835,0.171-16.257,0.187
			C165.79,152.263,165.79,136.006,176.276,135.973z M57.054,94.729c3.764,0,6.568,0.569,8.649,1.609
			c2.943,1.471,4.438,3.894,5.105,7.047c-1.488-0.26-2.983-0.488-4.536-0.488c-15.566,0-28.19,13.388-28.19,29.897
			s12.624,29.897,28.19,29.897c1.366,0,2.682-0.228,3.999-0.431c-0.821,2.26-2.227,4.04-4.568,5.202
			c-2.081,1.057-4.885,1.634-8.649,1.634c-20.533,0-37.18-16.647-37.18-37.18C19.874,111.376,36.522,94.729,57.054,94.729z"/>
	</g>
</g>
<g>
</g>
<g>
</g>
<g>
</g>
<g>
</g>
<g>
</g>
<g>
</g>
<g>
</g>
<g>
</g>
<g>
</g>
<g>
</g>
<g>
</g>
<g>
</g>
<g>
</g>
<g>
</g>
<g>
</g>
</svg>
