<?xml version="1.0" encoding="iso-8859-1"?>
<!-- Generator: Adobe Illustrator 18.1.1, SVG Export Plug-In . SVG Version: 6.00 Build 0)  -->
<svg version="1.1" id="Capa_1" xmlns="http://www.w3.org/2000/svg" xmlns:xlink="http://www.w3.org/1999/xlink" x="0px" y="0px"
	 viewBox="0 0 492.748 492.748" style="enable-background:new 0 0 492.748 492.748;" xml:space="preserve">
<g>
	<g>
		<circle style="fill:#010002;" cx="314.085" cy="68.873" r="20.687"/>
		<circle style="fill:#010002;" cx="195.44" cy="63.053" r="14.867"/>
		<path style="fill:#010002;" d="M314.085,412.639c59.428-33.311,100.957-109.077,100.957-197.264
			C415.042,96.429,339.528,0,246.374,0S77.706,96.429,77.706,215.375c0,92.186,45.374,170.806,109.142,201.532v34.018
			c-0.455,1.284-0.764,2.682-0.764,4.284v25.743c0,15.729,24.386,15.729,24.386,0v-21.037h78.628
			c0.52,4.032,0.008,8.21-0.057,12.908c-0.089,6.649,5.609,12.193,12.193,12.193c6.714,0,12.103-5.544,12.193-12.193
			c0.057-4.341,0.285-8.641,0.089-12.908h0.561v-47.276H314.085z M314.085,40.058c15.891,0,28.816,12.924,28.816,28.816
			s-12.924,28.816-28.816,28.816c-15.891,0-28.816-12.924-28.816-28.816S298.194,40.058,314.085,40.058z M195.44,40.058
			c12.681,0,22.996,10.315,22.996,22.996s-10.315,22.996-22.996,22.996s-22.996-10.315-22.996-22.996S182.76,40.058,195.44,40.058z
			 M122.568,289.052c-4.438-13.396-6.942-27.686-6.942-42.594c0-2.081,0.219-4.105,0.309-6.161l52.153-13.046l-31.165-53.494
			c4.788-7.478,10.258-14.453,16.371-20.809l59.249,18.793l1.357-54.852c10.827-2.975,22.167-4.698,33.904-4.796l16.119,52.6
			l52.234-34.205c10.486,6.194,20.078,13.729,28.483,22.467l-20.143,58.802l53.803,2.569c2.512,10.315,3.991,21.037,3.991,32.132
			c0,0.236-0.033,0.463-0.033,0.699l-51.706,15.2l33.278,52.112c-3.186,5.454-6.69,10.681-10.575,15.599l-60.688-12.843l4.04,54.665
			c-12.242,4.731-25.329,7.665-39.001,8.551l-19.005-51.511l-50.308,37.131c-9.803-5.064-18.866-11.307-27.068-18.558l15.29-60.298
			L122.568,289.052z"/>
	</g>
</g>
<g>
</g>
<g>
</g>
<g>
</g>
<g>
</g>
<g>
</g>
<g>
</g>
<g>
</g>
<g>
</g>
<g>
</g>
<g>
</g>
<g>
</g>
<g>
</g>
<g>
</g>
<g>
</g>
<g>
</g>
</svg>
